<?xml version="1.0" encoding="UTF-8" standalone="no"?>
<!DOCTYPE svg PUBLIC "-//W3C//DTD SVG 1.1//EN"
 "http://www.w3.org/Graphics/SVG/1.1/DTD/svg11.dtd">
<!-- Generated by graphviz version 2.43.0 (0)
 -->
<!-- Title: workflow Pages: 1 -->
<svg width="679pt" height="288pt"
 viewBox="0.00 0.00 678.74 288.00" xmlns="http://www.w3.org/2000/svg" xmlns:xlink="http://www.w3.org/1999/xlink">
<g id="graph0" class="graph" transform="scale(1 1) rotate(0) translate(4 284)">
<title>workflow</title>
<polygon fill="white" stroke="transparent" points="-4,4 -4,-284 674.74,-284 674.74,4 -4,4"/>
<!-- place_new -->
<g id="node1" class="node">
<title>place_new</title>
<ellipse fill="lightgreen" stroke="#333333" cx="36" cy="-181" rx="36" ry="18"/>
<text text-anchor="start" x="28" y="-180.1" font-family="Arial" font-weight="bold" font-size="8.00">new</text>
</g>
<!-- transition_0 -->
<g id="node5" class="node">
<title>transition_0</title>
<polygon fill="none" stroke="#333333" points="199,-199 108,-199 108,-163 199,-163 199,-199"/>
<text text-anchor="start" x="133.5" y="-187.6" font-family="Arial" font-weight="bold" font-size="8.00">download</text>
<text text-anchor="start" x="116" y="-179.6" font-family="Arial" font-style="italic" font-size="8.00">Download originalUrl</text>
<text text-anchor="start" x="141" y="-171.6" font-family="Arial" font-style="italic" font-size="8.00">to /tmp</text>
</g>
<!-- place_new&#45;&gt;transition_0 -->
<!-- new -->
<g id="edge1" class="edge">
<title>place_new&#45;&gt;transition_0</title>
<path fill="none" stroke="#333333" d="M72.28,-181C81.77,-181 92.22,-181 102.35,-181"/>
<polygon fill="#333333" stroke="#333333" points="102.62,-182.75 107.62,-181 102.62,-179.25 102.62,-182.75"/>
</g>
<!-- place_downloaded -->
<g id="node2" class="node">
<title>place_downloaded</title>
<ellipse fill="lightgreen" stroke="#333333" cx="271.87" cy="-181" rx="36.74" ry="18"/>
<text text-anchor="start" x="247.37" y="-180.1" font-family="Arial" font-weight="bold" font-size="8.00">downloaded</text>
</g>
<!-- transition_1 -->
<g id="node6" class="node">
<title>transition_1</title>
<polygon fill="none" stroke="#333333" points="435.74,-280 344.74,-280 344.74,-244 435.74,-244 435.74,-280"/>
<text text-anchor="start" x="370.24" y="-268.6" font-family="Arial" font-weight="bold" font-size="8.00">download</text>
<text text-anchor="start" x="352.74" y="-260.6" font-family="Arial" font-style="italic" font-size="8.00">Download originalUrl</text>
<text text-anchor="start" x="377.74" y="-252.6" font-family="Arial" font-style="italic" font-size="8.00">to /tmp</text>
</g>
<!-- place_downloaded&#45;&gt;transition_1 -->
<!-- downloaded -->
<g id="edge3" class="edge">
<title>place_downloaded&#45;&gt;transition_1</title>
<path fill="none" stroke="#333333" d="M299.04,-193.57C312.47,-202.98 329.23,-215.5 344.74,-226 351.93,-230.86 359.99,-235.88 367.25,-240.72"/>
<polygon fill="#333333" stroke="#333333" points="366.54,-242.35 371.66,-243.71 368.51,-239.46 366.54,-242.35"/>
</g>
<!-- transition_3 -->
<g id="node8" class="node">
<title>transition_3</title>
<polygon fill="none" stroke="#333333" points="431.24,-226 349.24,-226 349.24,-190 431.24,-190 431.24,-226"/>
<text text-anchor="start" x="357.24" y="-207.1" font-family="Arial" font-weight="bold" font-size="8.00">download_failed</text>
</g>
<!-- place_downloaded&#45;&gt;transition_3 -->
<!-- downloaded -->
<g id="edge7" class="edge">
<title>place_downloaded&#45;&gt;transition_3</title>
<path fill="none" stroke="#333333" d="M305.59,-188.59C317.46,-191.35 331.09,-194.51 343.86,-197.47"/>
<polygon fill="#333333" stroke="#333333" points="343.63,-199.21 348.89,-198.64 344.42,-195.8 343.63,-199.21"/>
</g>
<!-- transition_4 -->
<g id="node9" class="node">
<title>transition_4</title>
<polygon fill="none" stroke="#333333" points="426.24,-172 354.24,-172 354.24,-136 426.24,-136 426.24,-172"/>
<text text-anchor="start" x="368.74" y="-153.1" font-family="Arial" font-weight="bold" font-size="8.00">invalid_file</text>
</g>
<!-- place_downloaded&#45;&gt;transition_4 -->
<!-- downloaded -->
<g id="edge9" class="edge">
<title>place_downloaded&#45;&gt;transition_4</title>
<path fill="none" stroke="#333333" d="M305.59,-173.41C319.01,-170.3 334.67,-166.66 348.79,-163.39"/>
<polygon fill="#333333" stroke="#333333" points="349.44,-165.03 353.91,-162.2 348.64,-161.62 349.44,-165.03"/>
</g>
<!-- transition_5 -->
<g id="node10" class="node">
<title>transition_5</title>
<polygon fill="none" stroke="#333333" points="426.24,-80 354.24,-80 354.24,-44 426.24,-44 426.24,-80"/>
<text text-anchor="start" x="378.74" y="-61.1" font-family="Arial" font-weight="bold" font-size="8.00">resize</text>
</g>
<!-- place_downloaded&#45;&gt;transition_5 -->
<!-- downloaded -->
<g id="edge11" class="edge">
<title>place_downloaded&#45;&gt;transition_5</title>
<path fill="none" stroke="#333333" d="M284.95,-163.87C298.38,-145.48 321.27,-115.95 344.74,-94 348.68,-90.32 353.05,-86.7 357.48,-83.29"/>
<polygon fill="#333333" stroke="#333333" points="358.6,-84.64 361.54,-80.23 356.5,-81.84 358.6,-84.64"/>
</g>
<!-- place_resized -->
<g id="node3" class="node">
<title>place_resized</title>
<ellipse fill="lightgreen" stroke="#333333" cx="507.74" cy="-62" rx="36" ry="18"/>
<text text-anchor="start" x="493.74" y="-61.1" font-family="Arial" font-weight="bold" font-size="8.00">resized</text>
</g>
<!-- transition_6 -->
<g id="node11" class="node">
<title>transition_6</title>
<polygon fill="none" stroke="#333333" points="661.24,-90 589.24,-90 589.24,-54 661.24,-54 661.24,-90"/>
<text text-anchor="start" x="613.74" y="-71.1" font-family="Arial" font-weight="bold" font-size="8.00">resize</text>
</g>
<!-- place_resized&#45;&gt;transition_6 -->
<!-- resized -->
<g id="edge13" class="edge">
<title>place_resized&#45;&gt;transition_6</title>
<path fill="none" stroke="#333333" d="M543.39,-58.76C556.18,-59.27 570.78,-60.46 584.02,-62.05"/>
<polygon fill="#333333" stroke="#333333" points="584.03,-63.82 589.21,-62.7 584.47,-60.34 584.03,-63.82"/>
</g>
<!-- transition_7 -->
<g id="node12" class="node">
<title>transition_7</title>
<polygon fill="none" stroke="#333333" points="661.24,-36 589.24,-36 589.24,0 661.24,0 661.24,-36"/>
<text text-anchor="start" x="611.24" y="-17.1" font-family="Arial" font-weight="bold" font-size="8.00">refresh</text>
</g>
<!-- place_resized&#45;&gt;transition_7 -->
<!-- resized -->
<g id="edge15" class="edge">
<title>place_resized&#45;&gt;transition_7</title>
<path fill="none" stroke="#333333" d="M531.01,-48.06C545.99,-41.09 566.17,-33.06 583.92,-26.89"/>
<polygon fill="#333333" stroke="#333333" points="584.7,-28.47 588.86,-25.2 583.56,-25.16 584.7,-28.47"/>
</g>
<!-- place_failed -->
<g id="node4" class="node">
<title>place_failed</title>
<ellipse fill="lightgreen" stroke="#333333" cx="507.74" cy="-154" rx="36" ry="18"/>
<text text-anchor="start" x="496.74" y="-153.1" font-family="Arial" font-weight="bold" font-size="8.00">failed</text>
</g>
<!-- transition_2 -->
<g id="node7" class="node">
<title>transition_2</title>
<polygon fill="none" stroke="#333333" points="670.74,-153 579.74,-153 579.74,-117 670.74,-117 670.74,-153"/>
<text text-anchor="start" x="605.24" y="-141.6" font-family="Arial" font-weight="bold" font-size="8.00">download</text>
<text text-anchor="start" x="587.74" y="-133.6" font-family="Arial" font-style="italic" font-size="8.00">Download originalUrl</text>
<text text-anchor="start" x="612.74" y="-125.6" font-family="Arial" font-style="italic" font-size="8.00">to /tmp</text>
</g>
<!-- place_failed&#45;&gt;transition_2 -->
<!-- failed -->
<g id="edge5" class="edge">
<title>place_failed&#45;&gt;transition_2</title>
<path fill="none" stroke="#333333" d="M542.15,-148.5C552.32,-146.83 563.72,-144.96 574.71,-143.15"/>
<polygon fill="#333333" stroke="#333333" points="575.08,-144.86 579.73,-142.32 574.51,-141.41 575.08,-144.86"/>
</g>
<!-- transition_0&#45;&gt;place_downloaded -->
<g id="edge2" class="edge">
<title>transition_0&#45;&gt;place_downloaded</title>
<path fill="none" stroke="#333333" d="M199.16,-181C209.2,-181 219.81,-181 229.71,-181"/>
<polygon fill="#333333" stroke="#333333" points="229.81,-182.75 234.81,-181 229.81,-179.25 229.81,-182.75"/>
</g>
<!-- transition_1&#45;&gt;place_downloaded -->
<g id="edge4" class="edge">
<title>transition_1&#45;&gt;place_downloaded</title>
<path fill="none" stroke="#333333" d="M344.49,-243.83C325.05,-230.66 303.7,-214.35 289.41,-201.32"/>
<polygon fill="#333333" stroke="#333333" points="290.42,-199.87 285.57,-197.74 288.03,-202.43 290.42,-199.87"/>
</g>
<!-- transition_2&#45;&gt;place_downloaded -->
<g id="edge6" class="edge">
<title>transition_2&#45;&gt;place_downloaded</title>
<path fill="none" stroke="#333333" d="M579.29,-124.44C522.89,-113.26 423.94,-100.56 344.74,-127 324.44,-133.78 305.27,-148.78 291.84,-161.26"/>
<polygon fill="#333333" stroke="#333333" points="290.63,-159.99 288.21,-164.71 293.04,-162.53 290.63,-159.99"/>
</g>
<!-- transition_3&#45;&gt;place_failed -->
<g id="edge8" class="edge">
<title>transition_3&#45;&gt;place_failed</title>
<path fill="none" stroke="#333333" d="M430.02,-189.87C445.09,-182.82 462.11,-174.87 476.27,-168.24"/>
<polygon fill="#333333" stroke="#333333" points="477.17,-169.75 480.96,-166.05 475.69,-166.58 477.17,-169.75"/>
</g>
<!-- transition_4&#45;&gt;place_failed -->
<g id="edge10" class="edge">
<title>transition_4&#45;&gt;place_failed</title>
<path fill="none" stroke="#333333" d="M426.52,-154C439.17,-154 453.53,-154 466.56,-154"/>
<polygon fill="#333333" stroke="#333333" points="466.67,-155.75 471.67,-154 466.67,-152.25 466.67,-155.75"/>
</g>
<!-- transition_5&#45;&gt;place_resized -->
<g id="edge12" class="edge">
<title>transition_5&#45;&gt;place_resized</title>
<path fill="none" stroke="#333333" d="M426.52,-62C439.17,-62 453.53,-62 466.56,-62"/>
<polygon fill="#333333" stroke="#333333" points="466.67,-63.75 471.67,-62 466.67,-60.25 466.67,-63.75"/>
</g>
<!-- transition_6&#45;&gt;place_resized -->
<g id="edge14" class="edge">
<title>transition_6&#45;&gt;place_resized</title>
<path fill="none" stroke="#333333" d="M588.95,-75.22C574.85,-74.63 558.64,-73.23 544.5,-71.39"/>
<polygon fill="#333333" stroke="#333333" points="544.58,-69.64 539.39,-70.69 544.11,-73.1 544.58,-69.64"/>
</g>
<!-- transition_7&#45;&gt;place_resized -->
<g id="edge16" class="edge">
<title>transition_7&#45;&gt;place_resized</title>
<path fill="none" stroke="#333333" d="M592.56,-36.16C578.32,-42.35 561.4,-48.9 546.5,-53.99"/>
<polygon fill="#333333" stroke="#333333" points="545.71,-52.41 541.53,-55.66 546.83,-55.73 545.71,-52.41"/>
</g>
</g>
</svg>
