<?xml version="1.0" encoding="UTF-8" standalone="no"?>
<!DOCTYPE svg PUBLIC "-//W3C//DTD SVG 1.1//EN"
 "http://www.w3.org/Graphics/SVG/1.1/DTD/svg11.dtd">
<!-- Generated by graphviz version 2.43.0 (0)
 -->
<!-- Title: workflow Pages: 1 -->
<svg width="404pt" height="44pt"
 viewBox="0.00 0.00 404.00 44.00" xmlns="http://www.w3.org/2000/svg" xmlns:xlink="http://www.w3.org/1999/xlink">
<g id="graph0" class="graph" transform="scale(1 1) rotate(0) translate(4 40)">
<title>workflow</title>
<polygon fill="white" stroke="transparent" points="-4,4 -4,-40 400,-40 400,4 -4,4"/>
<!-- place_new -->
<g id="node1" class="node">
<title>place_new</title>
<ellipse fill="lightgreen" stroke="#333333" cx="36" cy="-18" rx="36" ry="18"/>
<text text-anchor="start" x="28" y="-17.1" font-family="Arial" font-weight="bold" font-size="8.00">new</text>
</g>
<!-- transition_0 -->
<g id="node3" class="node">
<title>transition_0</title>
<polygon fill="none" stroke="#333333" points="180,-36 108,-36 108,0 180,0 180,-36"/>
<text text-anchor="start" x="132.5" y="-17.1" font-family="Arial" font-weight="bold" font-size="8.00">resize</text>
</g>
<!-- place_new&#45;&gt;transition_0 -->
<!-- new -->
<g id="edge1" class="edge">
<title>place_new&#45;&gt;transition_0</title>
<path fill="none" stroke="#333333" d="M72,-18C81.76,-18 92.44,-18 102.49,-18"/>
<polygon fill="#333333" stroke="#333333" points="102.67,-19.75 107.67,-18 102.67,-16.25 102.67,-19.75"/>
</g>
<!-- place_done -->
<g id="node2" class="node">
<title>place_done</title>
<ellipse fill="lightgreen" stroke="#333333" cx="252" cy="-18" rx="36" ry="18"/>
<text text-anchor="start" x="241.5" y="-17.1" font-family="Arial" font-weight="bold" font-size="8.00">done</text>
</g>
<!-- transition_1 -->
<g id="node4" class="node">
<title>transition_1</title>
<polygon fill="none" stroke="#333333" points="396,-36 324,-36 324,0 396,0 396,-36"/>
<text text-anchor="start" x="348.5" y="-17.1" font-family="Arial" font-weight="bold" font-size="8.00">resize</text>
</g>
<!-- place_done&#45;&gt;transition_1 -->
<!-- done -->
<g id="edge3" class="edge">
<title>place_done&#45;&gt;transition_1</title>
<path fill="none" stroke="#333333" d="M285.96,-11.7C296.3,-11.21 307.83,-11.12 318.63,-11.42"/>
<polygon fill="#333333" stroke="#333333" points="318.8,-13.18 323.86,-11.6 318.92,-9.68 318.8,-13.18"/>
</g>
<!-- transition_0&#45;&gt;place_done -->
<g id="edge2" class="edge">
<title>transition_0&#45;&gt;place_done</title>
<path fill="none" stroke="#333333" d="M180,-18C189.76,-18 200.44,-18 210.49,-18"/>
<polygon fill="#333333" stroke="#333333" points="210.67,-19.75 215.67,-18 210.67,-16.25 210.67,-19.75"/>
</g>
<!-- transition_1&#45;&gt;place_done -->
<g id="edge4" class="edge">
<title>transition_1&#45;&gt;place_done</title>
<path fill="none" stroke="#333333" d="M323.86,-24.4C313.36,-24.83 301.8,-24.86 291.12,-24.51"/>
<polygon fill="#333333" stroke="#333333" points="291.02,-22.75 285.96,-24.3 290.88,-26.25 291.02,-22.75"/>
</g>
</g>
</svg>
