<?xml version="1.0" encoding="UTF-8" standalone="no"?>
<!DOCTYPE svg PUBLIC "-//W3C//DTD SVG 1.1//EN"
 "http://www.w3.org/Graphics/SVG/1.1/DTD/svg11.dtd">
<!-- Generated by graphviz version 2.43.0 (0)
 -->
<!-- Title: workflow Pages: 1 -->
<svg width="837pt" height="1192pt"
 viewBox="0.00 0.00 837.00 1192.00" xmlns="http://www.w3.org/2000/svg" xmlns:xlink="http://www.w3.org/1999/xlink">
<g id="graph0" class="graph" transform="scale(1 1) rotate(0) translate(4 1188)">
<title>workflow</title>
<polygon fill="white" stroke="transparent" points="-4,4 -4,-1188 833,-1188 833,4 -4,4"/>
<text text-anchor="start" x="375" y="-8.8" font-family="Times,serif" font-weight="bold" font-size="14.00">ai_subject</text>
<!-- place_new -->
<g id="node1" class="node">
<title>place_new</title>
<ellipse fill="lightgreen" stroke="lightBlue" cx="757" cy="-1139" rx="72" ry="36"/>
<text text-anchor="start" x="749" y="-1153.6" font-family="Arial" font-weight="bold" font-size="8.00">new</text>
<text text-anchor="start" x="724.5" y="-1145.6" font-family="Arial" font-style="italic" font-size="8.00">Subject registered</text>
<text text-anchor="start" x="722" y="-1137.6" font-family="Arial" font-size="8.00">bgColor: secondary</text>
<text text-anchor="start" x="729" y="-1121.6" font-family="Arial" font-size="8.00">Then: </text>
<text text-anchor="start" x="753" y="-1121.6" font-family="Arial" text-decoration="underline" font-size="8.00">prepare</text>
<text text-anchor="start" x="782" y="-1121.6" font-family="Arial" font-size="8.00"> </text>
<text text-anchor="middle" x="562.5" y="-1177.6" font-family="Arial" font-size="8.00">Place new: The subject exists but has not been prepared for AI work.</text>
</g>
<!-- transition_prepare -->
<g id="node7" class="node">
<title>transition_prepare</title>
<polygon fill="lightBlue" stroke="lightBlue" points="829,-1067 685,-1067 685,-995 829,-995 829,-1067"/>
<text text-anchor="start" x="741.5" y="-1037.6" font-family="Arial" font-weight="bold" font-size="8.00">prepare</text>
<text text-anchor="start" x="711.5" y="-1029.6" font-family="Arial" font-style="italic" font-size="8.00">Prepare Metadata/Image</text>
<text text-anchor="start" x="744.5" y="-1021.6" font-family="Arial" font-size="8.00">async: </text>
<text text-anchor="middle" x="460.5" y="-1069.6" font-family="Arial" font-size="8.00">Transition prepare: App&#45;owned setup: fetch source, normalize content, create media variants, resolve URLs, or load metadata.</text>
</g>
<!-- place_new&#45;&gt;transition_prepare -->
<!-- new -->
<g id="edge1" class="edge">
<title>place_new&#45;&gt;transition_prepare</title>
<path fill="none" stroke="#333333" d="M757,-1103C757,-1093.24 757,-1082.56 757,-1072.51"/>
<polygon fill="#333333" stroke="#333333" points="758.75,-1072.33 757,-1067.33 755.25,-1072.33 758.75,-1072.33"/>
</g>
<!-- place_prepared -->
<g id="node2" class="node">
<title>place_prepared</title>
<ellipse fill="lightgreen" stroke="lightBlue" cx="757" cy="-923" rx="72" ry="36"/>
<text text-anchor="start" x="739" y="-937.6" font-family="Arial" font-weight="bold" font-size="8.00">prepared</text>
<text text-anchor="start" x="719" y="-929.6" font-family="Arial" font-style="italic" font-size="8.00">Prepared for AI work</text>
<text text-anchor="start" x="726.5" y="-921.6" font-family="Arial" font-size="8.00">bgColor: primary</text>
<text text-anchor="start" x="729" y="-905.6" font-family="Arial" font-size="8.00">Then: </text>
<text text-anchor="start" x="753" y="-905.6" font-family="Arial" text-decoration="underline" font-size="8.00">observe</text>
<text text-anchor="start" x="782" y="-905.6" font-family="Arial" font-size="8.00"> </text>
<text text-anchor="middle" x="510" y="-961.6" font-family="Arial" font-size="8.00">Place prepared: Source content, metadata, URLs, or normalized text are available for observation.</text>
</g>
<!-- transition_observe -->
<g id="node8" class="node">
<title>transition_observe</title>
<polygon fill="lightBlue" stroke="lightBlue" points="829,-851 685,-851 685,-779 829,-779 829,-851"/>
<text text-anchor="start" x="741" y="-821.6" font-family="Arial" font-weight="bold" font-size="8.00">observe</text>
<text text-anchor="start" x="724" y="-813.6" font-family="Arial" font-style="italic" font-size="8.00">Observation Tasks</text>
<text text-anchor="start" x="744.5" y="-805.6" font-family="Arial" font-size="8.00">async: </text>
<text text-anchor="middle" x="342.5" y="-853.6" font-family="Arial" font-size="8.00">Transition observe: Generate neutral evidence from prepared content. For media this starts with low&#45;res observation plus optional high&#45;res reads; for text it may be summaries or structural facts.</text>
</g>
<!-- place_prepared&#45;&gt;transition_observe -->
<!-- prepared -->
<g id="edge3" class="edge">
<title>place_prepared&#45;&gt;transition_observe</title>
<path fill="none" stroke="#333333" d="M757,-887C757,-877.24 757,-866.56 757,-856.51"/>
<polygon fill="#333333" stroke="#333333" points="758.75,-856.33 757,-851.33 755.25,-856.33 758.75,-856.33"/>
</g>
<!-- place_observed -->
<g id="node3" class="node">
<title>place_observed</title>
<ellipse fill="lightgreen" stroke="lightBlue" cx="757" cy="-707" rx="72" ry="36"/>
<text text-anchor="start" x="738.5" y="-721.6" font-family="Arial" font-weight="bold" font-size="8.00">observed</text>
<text text-anchor="start" x="711.5" y="-713.6" font-family="Arial" font-style="italic" font-size="8.00">Observed evidence exists</text>
<text text-anchor="start" x="726.5" y="-705.6" font-family="Arial" font-size="8.00">bgColor: primary</text>
<text text-anchor="start" x="713.5" y="-689.6" font-family="Arial" font-size="8.00">Then: </text>
<text text-anchor="start" x="737.5" y="-689.6" font-family="Arial" text-decoration="underline" font-size="8.00">observe</text>
<text text-anchor="start" x="766.5" y="-689.6" font-family="Arial" font-size="8.00"> </text>
<text text-anchor="start" x="769.5" y="-689.6" font-family="Arial" text-decoration="underline" font-size="8.00">analyze</text>
<text text-anchor="start" x="797.5" y="-689.6" font-family="Arial" font-size="8.00"> </text>
<text text-anchor="middle" x="464.5" y="-745.6" font-family="Arial" font-size="8.00">Place observed: Observation has produced neutral evidence. Additional observation tasks may still be queued on the subject.</text>
</g>
<!-- place_observed&#45;&gt;transition_observe -->
<!-- observed -->
<g id="edge5" class="edge">
<title>place_observed&#45;&gt;transition_observe</title>
<path fill="none" stroke="#333333" d="M763.39,-742.97C763.8,-752.82 763.86,-763.62 763.57,-773.76"/>
<polygon fill="#333333" stroke="#333333" points="761.82,-773.94 763.39,-779 765.31,-774.06 761.82,-773.94"/>
</g>
<!-- transition_analyze -->
<g id="node9" class="node">
<title>transition_analyze</title>
<polygon fill="lightBlue" stroke="lightBlue" points="829,-635 685,-635 685,-563 829,-563 829,-635"/>
<text text-anchor="start" x="742" y="-605.6" font-family="Arial" font-weight="bold" font-size="8.00">analyze</text>
<text text-anchor="start" x="725" y="-597.6" font-family="Arial" font-style="italic" font-size="8.00">Analyze from Text</text>
<text text-anchor="start" x="744.5" y="-589.6" font-family="Arial" font-size="8.00">async: </text>
<text text-anchor="middle" x="384.5" y="-637.6" font-family="Arial" font-size="8.00">Transition analyze: App&#45;owned interpretation from observations and context. Does not inspect pixels or source content directly unless the app explicitly chooses that policy.</text>
</g>
<!-- place_observed&#45;&gt;transition_analyze -->
<!-- observed -->
<g id="edge7" class="edge">
<title>place_observed&#45;&gt;transition_analyze</title>
<path fill="none" stroke="#333333" d="M757,-671C757,-661.24 757,-650.56 757,-640.51"/>
<polygon fill="#333333" stroke="#333333" points="758.75,-640.33 757,-635.33 755.25,-640.33 758.75,-640.33"/>
</g>
<!-- place_analyzed -->
<g id="node4" class="node">
<title>place_analyzed</title>
<ellipse fill="lightgreen" stroke="lightBlue" cx="757" cy="-491" rx="72" ry="36"/>
<text text-anchor="start" x="739.5" y="-505.6" font-family="Arial" font-weight="bold" font-size="8.00">analyzed</text>
<text text-anchor="start" x="725" y="-497.6" font-family="Arial" font-style="italic" font-size="8.00">Analysis complete</text>
<text text-anchor="start" x="726.5" y="-489.6" font-family="Arial" font-size="8.00">bgColor: success</text>
<text text-anchor="start" x="716" y="-473.6" font-family="Arial" font-size="8.00">Then: </text>
<text text-anchor="start" x="740" y="-473.6" font-family="Arial" text-decoration="underline" font-size="8.00">analyze</text>
<text text-anchor="start" x="768" y="-473.6" font-family="Arial" font-size="8.00"> </text>
<text text-anchor="start" x="771" y="-473.6" font-family="Arial" text-decoration="underline" font-size="8.00">review</text>
<text text-anchor="start" x="795" y="-473.6" font-family="Arial" font-size="8.00"> </text>
<text text-anchor="middle" x="504.5" y="-529.6" font-family="Arial" font-size="8.00">Place analyzed: Application&#45;level interpretation has been derived from observed evidence and context.</text>
</g>
<!-- place_analyzed&#45;&gt;transition_analyze -->
<!-- analyzed -->
<g id="edge9" class="edge">
<title>place_analyzed&#45;&gt;transition_analyze</title>
<path fill="none" stroke="#333333" d="M763.39,-526.97C763.8,-536.82 763.86,-547.62 763.57,-557.76"/>
<polygon fill="#333333" stroke="#333333" points="761.82,-557.94 763.39,-563 765.31,-558.06 761.82,-557.94"/>
</g>
<!-- transition_review -->
<g id="node10" class="node">
<title>transition_review</title>
<polygon fill="lightBlue" stroke="lightBlue" points="829,-419 685,-419 685,-347 829,-347 829,-419"/>
<text text-anchor="start" x="744.5" y="-389.6" font-family="Arial" font-weight="bold" font-size="8.00">review</text>
<text text-anchor="start" x="722" y="-381.6" font-family="Arial" font-style="italic" font-size="8.00">App&#45;owned Review</text>
<text text-anchor="start" x="744.5" y="-373.6" font-family="Arial" font-size="8.00">async: </text>
<text text-anchor="middle" x="452" y="-421.6" font-family="Arial" font-size="8.00">Transition review: App&#45;owned approval point after analysis. The app decides whether this is automatic, human, or skipped by policy.</text>
</g>
<!-- place_analyzed&#45;&gt;transition_review -->
<!-- analyzed -->
<g id="edge11" class="edge">
<title>place_analyzed&#45;&gt;transition_review</title>
<path fill="none" stroke="#333333" d="M757,-455C757,-445.24 757,-434.56 757,-424.51"/>
<polygon fill="#333333" stroke="#333333" points="758.75,-424.33 757,-419.33 755.25,-424.33 758.75,-424.33"/>
</g>
<!-- place_reviewed -->
<g id="node5" class="node">
<title>place_reviewed</title>
<ellipse fill="lightgreen" stroke="lightBlue" cx="757" cy="-275" rx="72" ry="36"/>
<text text-anchor="start" x="739.5" y="-289.6" font-family="Arial" font-weight="bold" font-size="8.00">reviewed</text>
<text text-anchor="start" x="739" y="-281.6" font-family="Arial" font-style="italic" font-size="8.00">Reviewed</text>
<text text-anchor="start" x="726.5" y="-273.6" font-family="Arial" font-size="8.00">bgColor: success</text>
<text text-anchor="start" x="717.5" y="-257.6" font-family="Arial" font-size="8.00">Then: </text>
<text text-anchor="start" x="741.5" y="-257.6" font-family="Arial" text-decoration="underline" font-size="8.00">review</text>
<text text-anchor="start" x="765.5" y="-257.6" font-family="Arial" font-size="8.00"> </text>
<text text-anchor="start" x="768.5" y="-257.6" font-family="Arial" text-decoration="underline" font-size="8.00">publish</text>
<text text-anchor="start" x="793.5" y="-257.6" font-family="Arial" font-size="8.00"> </text>
<text text-anchor="middle" x="490" y="-313.6" font-family="Arial" font-size="8.00">Place reviewed: Analysis has passed app&#45;defined review, whether automatic policy checks or human approval.</text>
</g>
<!-- place_reviewed&#45;&gt;transition_review -->
<!-- reviewed -->
<g id="edge13" class="edge">
<title>place_reviewed&#45;&gt;transition_review</title>
<path fill="none" stroke="#333333" d="M763.39,-310.97C763.8,-320.82 763.86,-331.62 763.57,-341.76"/>
<polygon fill="#333333" stroke="#333333" points="761.82,-341.94 763.39,-347 765.31,-342.06 761.82,-341.94"/>
</g>
<!-- transition_publish -->
<g id="node11" class="node">
<title>transition_publish</title>
<polygon fill="lightBlue" stroke="lightBlue" points="829,-203 685,-203 685,-131 829,-131 829,-203"/>
<text text-anchor="start" x="741.5" y="-173.6" font-family="Arial" font-weight="bold" font-size="8.00">publish</text>
<text text-anchor="start" x="744" y="-165.6" font-family="Arial" font-style="italic" font-size="8.00">Publish</text>
<text text-anchor="start" x="744.5" y="-157.6" font-family="Arial" font-size="8.00">async: </text>
<text text-anchor="middle" x="465.5" y="-205.6" font-family="Arial" font-size="8.00">Transition publish: App&#45;owned projection into denormalized fields, search indexes, exports, webhooks, or other final outputs.</text>
</g>
<!-- place_reviewed&#45;&gt;transition_publish -->
<!-- reviewed -->
<g id="edge15" class="edge">
<title>place_reviewed&#45;&gt;transition_publish</title>
<path fill="none" stroke="#333333" d="M757,-239C757,-229.24 757,-218.56 757,-208.51"/>
<polygon fill="#333333" stroke="#333333" points="758.75,-208.33 757,-203.33 755.25,-208.33 758.75,-208.33"/>
</g>
<!-- place_published -->
<g id="node6" class="node">
<title>place_published</title>
<ellipse fill="lightgreen" stroke="lightBlue" cx="757" cy="-59" rx="72" ry="36"/>
<text text-anchor="start" x="737" y="-65.6" font-family="Arial" font-weight="bold" font-size="8.00">published</text>
<text text-anchor="start" x="739.5" y="-57.6" font-family="Arial" font-style="italic" font-size="8.00">Published</text>
<text text-anchor="start" x="726.5" y="-49.6" font-family="Arial" font-size="8.00">bgColor: success</text>
<text text-anchor="middle" x="485.5" y="-97.6" font-family="Arial" font-size="8.00">Place published: Analysis has been projected into app fields, indexes, exports, webhooks, or other public outputs.</text>
</g>
<!-- place_published&#45;&gt;transition_publish -->
<!-- published -->
<g id="edge17" class="edge">
<title>place_published&#45;&gt;transition_publish</title>
<path fill="none" stroke="#333333" d="M763.39,-94.97C763.8,-104.82 763.86,-115.62 763.57,-125.76"/>
<polygon fill="#333333" stroke="#333333" points="761.82,-125.94 763.39,-131 765.31,-126.06 761.82,-125.94"/>
</g>
<!-- transition_prepare&#45;&gt;place_prepared -->
<g id="edge2" class="edge">
<title>transition_prepare&#45;&gt;place_prepared</title>
<path fill="none" stroke="#333333" d="M757,-995C757,-985.24 757,-974.56 757,-964.51"/>
<polygon fill="#333333" stroke="#333333" points="758.75,-964.33 757,-959.33 755.25,-964.33 758.75,-964.33"/>
</g>
<!-- transition_observe&#45;&gt;place_observed -->
<g id="edge4" class="edge">
<title>transition_observe&#45;&gt;place_observed</title>
<path fill="none" stroke="#333333" d="M757,-779C757,-769.24 757,-758.56 757,-748.51"/>
<polygon fill="#333333" stroke="#333333" points="758.75,-748.33 757,-743.33 755.25,-748.33 758.75,-748.33"/>
</g>
<!-- transition_observe&#45;&gt;place_observed -->
<g id="edge6" class="edge">
<title>transition_observe&#45;&gt;place_observed</title>
<path fill="none" stroke="#333333" d="M750.61,-779C750.2,-769.14 750.14,-758.34 750.43,-748.2"/>
<polygon fill="#333333" stroke="#333333" points="752.19,-748.02 750.61,-742.97 748.69,-747.9 752.19,-748.02"/>
</g>
<!-- transition_analyze&#45;&gt;place_analyzed -->
<g id="edge8" class="edge">
<title>transition_analyze&#45;&gt;place_analyzed</title>
<path fill="none" stroke="#333333" d="M757,-563C757,-553.24 757,-542.56 757,-532.51"/>
<polygon fill="#333333" stroke="#333333" points="758.75,-532.33 757,-527.33 755.25,-532.33 758.75,-532.33"/>
</g>
<!-- transition_analyze&#45;&gt;place_analyzed -->
<g id="edge10" class="edge">
<title>transition_analyze&#45;&gt;place_analyzed</title>
<path fill="none" stroke="#333333" d="M750.61,-563C750.2,-553.14 750.14,-542.34 750.43,-532.2"/>
<polygon fill="#333333" stroke="#333333" points="752.19,-532.02 750.61,-526.97 748.69,-531.9 752.19,-532.02"/>
</g>
<!-- transition_review&#45;&gt;place_reviewed -->
<g id="edge12" class="edge">
<title>transition_review&#45;&gt;place_reviewed</title>
<path fill="none" stroke="#333333" d="M757,-347C757,-337.24 757,-326.56 757,-316.51"/>
<polygon fill="#333333" stroke="#333333" points="758.75,-316.33 757,-311.33 755.25,-316.33 758.75,-316.33"/>
</g>
<!-- transition_review&#45;&gt;place_reviewed -->
<g id="edge14" class="edge">
<title>transition_review&#45;&gt;place_reviewed</title>
<path fill="none" stroke="#333333" d="M750.61,-347C750.2,-337.14 750.14,-326.34 750.43,-316.2"/>
<polygon fill="#333333" stroke="#333333" points="752.19,-316.02 750.61,-310.97 748.69,-315.9 752.19,-316.02"/>
</g>
<!-- transition_publish&#45;&gt;place_published -->
<g id="edge16" class="edge">
<title>transition_publish&#45;&gt;place_published</title>
<path fill="none" stroke="#333333" d="M757,-131C757,-121.24 757,-110.56 757,-100.51"/>
<polygon fill="#333333" stroke="#333333" points="758.75,-100.33 757,-95.33 755.25,-100.33 758.75,-100.33"/>
</g>
<!-- transition_publish&#45;&gt;place_published -->
<g id="edge18" class="edge">
<title>transition_publish&#45;&gt;place_published</title>
<path fill="none" stroke="#333333" d="M750.61,-131C750.2,-121.14 750.14,-110.34 750.43,-100.2"/>
<polygon fill="#333333" stroke="#333333" points="752.19,-100.02 750.61,-94.97 748.69,-99.9 752.19,-100.02"/>
</g>
</g>
</svg>
