<?xml version="1.0" encoding="UTF-8" standalone="no"?>
<!DOCTYPE svg PUBLIC "-//W3C//DTD SVG 1.1//EN"
 "http://www.w3.org/Graphics/SVG/1.1/DTD/svg11.dtd">
<!-- Generated by graphviz version 2.43.0 (0)
 -->
<!-- Title: workflow Pages: 1 -->
<svg width="1244pt" height="1300pt"
 viewBox="0.00 0.00 1243.84 1300.00" xmlns="http://www.w3.org/2000/svg" xmlns:xlink="http://www.w3.org/1999/xlink">
<g id="graph0" class="graph" transform="scale(1 1) rotate(0) translate(4 1296)">
<title>workflow</title>
<polygon fill="white" stroke="transparent" points="-4,4 -4,-1296 1239.84,-1296 1239.84,4 -4,4"/>
<text text-anchor="start" x="596.92" y="-8.8" font-family="Times,serif" font-weight="bold" font-size="14.00">asset</text>
<!-- place_new -->
<g id="node1" class="node">
<title>place_new</title>
<ellipse fill="lightgreen" stroke="lightBlue" cx="845" cy="-1247" rx="72" ry="36"/>
<text text-anchor="start" x="837" y="-1257.6" font-family="Arial" font-weight="bold" font-size="8.00">new</text>
<text text-anchor="start" x="813" y="-1249.6" font-family="Arial" font-style="italic" font-size="8.00">Registered/added</text>
<text text-anchor="start" x="809" y="-1233.6" font-family="Arial" font-size="8.00">Then: </text>
<text text-anchor="start" x="833" y="-1233.6" font-family="Arial" text-decoration="underline" font-size="8.00">iiif</text>
<text text-anchor="start" x="840" y="-1233.6" font-family="Arial" font-size="8.00"> </text>
<text text-anchor="start" x="843" y="-1233.6" font-family="Arial" text-decoration="underline" font-size="8.00">download</text>
<text text-anchor="start" x="878" y="-1233.6" font-family="Arial" font-size="8.00"> </text>
<text text-anchor="middle" x="752" y="-1285.6" font-family="Arial" font-size="8.00">Place new: </text>
</g>
<!-- transition_download -->
<g id="node10" class="node">
<title>transition_download</title>
<polygon fill="lightBlue" stroke="lightBlue" points="807,-1175 663,-1175 663,-1103 807,-1103 807,-1175"/>
<text text-anchor="start" x="715" y="-1153.6" font-family="Arial" font-weight="bold" font-size="8.00">download</text>
<text text-anchor="start" x="716.5" y="-1145.6" font-family="Arial" font-style="italic" font-size="8.00">Download</text>
<text text-anchor="start" x="722.5" y="-1137.6" font-family="Arial" font-size="8.00">async: </text>
<text text-anchor="start" x="692.5" y="-1121.6" font-family="Arial" font-size="8.00">Then: </text>
<text text-anchor="start" x="716.5" y="-1121.6" font-family="Arial" text-decoration="underline" font-size="8.00">download_failed</text>
<text text-anchor="start" x="774.5" y="-1121.6" font-family="Arial" font-size="8.00"> </text>
<text text-anchor="middle" x="523" y="-1177.6" font-family="Arial" font-size="8.00">Transition download: HTTP GET/stream to temp; detect MIME; set statusCode</text>
</g>
<!-- place_new&#45;&gt;transition_download -->
<!-- new -->
<g id="edge1" class="edge">
<title>place_new&#45;&gt;transition_download</title>
<path fill="none" stroke="#333333" d="M812.59,-1214.77C800.88,-1203.48 787.5,-1190.59 775.2,-1178.74"/>
<polygon fill="#333333" stroke="#333333" points="776.23,-1177.3 771.42,-1175.09 773.8,-1179.82 776.23,-1177.3"/>
</g>
<!-- transition_local_ocr -->
<g id="node11" class="node">
<title>transition_local_ocr</title>
<polygon fill="lightBlue" stroke="lightBlue" points="912,-311 768,-311 768,-239 912,-239 912,-311"/>
<text text-anchor="start" x="821.5" y="-289.6" font-family="Arial" font-weight="bold" font-size="8.00">local_ocr</text>
<text text-anchor="start" x="820" y="-281.6" font-family="Arial" font-style="italic" font-size="8.00">Local OCR</text>
<text text-anchor="start" x="827.5" y="-273.6" font-family="Arial" font-size="8.00">async: </text>
<text text-anchor="start" x="814" y="-257.6" font-family="Arial" font-size="8.00">Then: </text>
<text text-anchor="start" x="838" y="-257.6" font-family="Arial" text-decoration="underline" font-size="8.00">ai_task</text>
<text text-anchor="start" x="863" y="-257.6" font-family="Arial" font-size="8.00"> </text>
<text text-anchor="middle" x="623" y="-313.6" font-family="Arial" font-size="8.00">Transition local_ocr: Run local OCR confidence pass and queue follow&#45;up AI tasks</text>
</g>
<!-- place_new&#45;&gt;transition_local_ocr -->
<!-- new -->
<g id="edge7" class="edge">
<title>place_new&#45;&gt;transition_local_ocr</title>
<path fill="none" stroke="#333333" d="M914.94,-1238.15C956.82,-1229.64 1007.49,-1211.92 1037,-1175 1077.03,-1124.92 1056,-1096.11 1056,-1032 1056,-1032 1056,-1032 1056,-490 1056,-409.19 978.77,-348.51 916.67,-312.77"/>
<polygon fill="#333333" stroke="#333333" points="917.44,-311.2 912.23,-310.24 915.7,-314.24 917.44,-311.2"/>
</g>
<!-- transition_iiif -->
<g id="node12" class="node">
<title>transition_iiif</title>
<polygon fill="lightBlue" stroke="lightBlue" points="1028,-1175 884,-1175 884,-1103 1028,-1103 1028,-1175"/>
<text text-anchor="start" x="951" y="-1153.6" font-family="Arial" font-weight="bold" font-size="8.00">iiif</text>
<text text-anchor="start" x="922.5" y="-1145.6" font-family="Arial" font-style="italic" font-size="8.00">Fetch IIIF manifest</text>
<text text-anchor="start" x="943.5" y="-1137.6" font-family="Arial" font-size="8.00">async: </text>
<text text-anchor="start" x="925" y="-1121.6" font-family="Arial" font-size="8.00">Then: </text>
<text text-anchor="start" x="949" y="-1121.6" font-family="Arial" text-decoration="underline" font-size="8.00">download</text>
<text text-anchor="start" x="984" y="-1121.6" font-family="Arial" font-size="8.00"> </text>
<text text-anchor="middle" x="817.5" y="-1177.6" font-family="Arial" font-size="8.00">Transition iiif: So download is optional</text>
</g>
<!-- place_new&#45;&gt;transition_iiif -->
<!-- new -->
<g id="edge17" class="edge">
<title>place_new&#45;&gt;transition_iiif</title>
<path fill="none" stroke="#333333" d="M877.7,-1214.77C889.53,-1203.48 903.02,-1190.59 915.44,-1178.74"/>
<polygon fill="#333333" stroke="#333333" points="916.84,-1179.81 919.25,-1175.09 914.43,-1177.28 916.84,-1179.81"/>
</g>
<!-- transition_queue_ai -->
<g id="node18" class="node">
<title>transition_queue_ai</title>
<polygon fill="lightBlue" stroke="lightBlue" points="750,-311 606,-311 606,-239 750,-239 750,-311"/>
<text text-anchor="start" x="659.5" y="-277.6" font-family="Arial" font-weight="bold" font-size="8.00">queue_ai</text>
<text text-anchor="start" x="650.5" y="-269.6" font-family="Arial" font-style="italic" font-size="8.00">Queue AI tasks</text>
<text text-anchor="middle" x="484" y="-241.6" font-family="Arial" font-size="8.00">Transition queue_ai: Populate aiQueue and enter the AI task pipeline</text>
</g>
<!-- place_new&#45;&gt;transition_queue_ai -->
<!-- new -->
<g id="edge39" class="edge">
<title>place_new&#45;&gt;transition_queue_ai</title>
<path fill="none" stroke="#333333" d="M775.8,-1236.73C615.83,-1213.38 234,-1145.73 234,-1032 234,-1032 234,-1032 234,-490 234,-329.22 473.19,-289.17 600.45,-279.24"/>
<polygon fill="#333333" stroke="#333333" points="600.82,-280.97 605.68,-278.85 600.56,-277.48 600.82,-280.97"/>
</g>
<!-- place_iiif -->
<g id="node2" class="node">
<title>place_iiif</title>
<ellipse fill="lightgreen" stroke="lightBlue" cx="956" cy="-1031" rx="72" ry="36"/>
<text text-anchor="start" x="951" y="-1041.6" font-family="Arial" font-weight="bold" font-size="8.00">iiif</text>
<text text-anchor="start" x="924" y="-1033.6" font-family="Arial" font-style="italic" font-size="8.00">Registered/added</text>
<text text-anchor="start" x="925" y="-1017.6" font-family="Arial" font-size="8.00">Then: </text>
<text text-anchor="start" x="949" y="-1017.6" font-family="Arial" text-decoration="underline" font-size="8.00">download</text>
<text text-anchor="start" x="984" y="-1017.6" font-family="Arial" font-size="8.00"> </text>
<text text-anchor="middle" x="867" y="-1069.6" font-family="Arial" font-size="8.00">Place iiif: </text>
</g>
<!-- place_iiif&#45;&gt;transition_local_ocr -->
<!-- iiif -->
<g id="edge15" class="edge">
<title>place_iiif&#45;&gt;transition_local_ocr</title>
<path fill="none" stroke="#333333" d="M956,-994.78C956,-952.37 956,-878.97 956,-816 956,-816 956,-816 956,-490 956,-422.25 910.5,-355.42 876.49,-314.94"/>
<polygon fill="#333333" stroke="#333333" points="877.81,-313.78 873.24,-311.1 875.14,-316.05 877.81,-313.78"/>
</g>
<!-- place_iiif&#45;&gt;transition_iiif -->
<!-- iiif -->
<g id="edge19" class="edge">
<title>place_iiif&#45;&gt;transition_iiif</title>
<path fill="none" stroke="#333333" d="M962.39,-1066.97C962.8,-1076.82 962.86,-1087.62 962.57,-1097.76"/>
<polygon fill="#333333" stroke="#333333" points="960.82,-1097.94 962.39,-1103 964.31,-1098.06 960.82,-1097.94"/>
</g>
<!-- place_downloaded -->
<g id="node3" class="node">
<title>place_downloaded</title>
<ellipse fill="lightgreen" stroke="lightBlue" cx="735" cy="-1031" rx="92.71" ry="36"/>
<text text-anchor="start" x="710.5" y="-1041.6" font-family="Arial" font-weight="bold" font-size="8.00">downloaded</text>
<text text-anchor="start" x="666" y="-1033.6" font-family="Arial" font-style="italic" font-size="8.00">Fetched to temp; MIME sniffed/probed</text>
<text text-anchor="start" x="695.5" y="-1017.6" font-family="Arial" font-size="8.00">Then: </text>
<text text-anchor="start" x="719.5" y="-1017.6" font-family="Arial" text-decoration="underline" font-size="8.00">triage</text>
<text text-anchor="start" x="740.5" y="-1017.6" font-family="Arial" font-size="8.00"> </text>
<text text-anchor="start" x="743.5" y="-1017.6" font-family="Arial" text-decoration="underline" font-size="8.00">analyze</text>
<text text-anchor="start" x="771.5" y="-1017.6" font-family="Arial" font-size="8.00"> </text>
<text text-anchor="middle" x="607.39" y="-1069.6" font-family="Arial" font-size="8.00">Place downloaded: </text>
</g>
<!-- place_downloaded&#45;&gt;transition_download -->
<!-- downloaded -->
<g id="edge3" class="edge">
<title>place_downloaded&#45;&gt;transition_download</title>
<path fill="none" stroke="#333333" d="M741.39,-1066.97C741.8,-1076.82 741.86,-1087.62 741.57,-1097.76"/>
<polygon fill="#333333" stroke="#333333" points="739.82,-1097.94 741.39,-1103 743.31,-1098.06 739.82,-1097.94"/>
</g>
<!-- place_downloaded&#45;&gt;transition_local_ocr -->
<!-- downloaded -->
<g id="edge9" class="edge">
<title>place_downloaded&#45;&gt;transition_local_ocr</title>
<path fill="none" stroke="#333333" d="M802.67,-1006.2C824.62,-995.18 846.93,-979.8 861,-959 896.93,-905.9 880,-880.11 880,-816 880,-816 880,-816 880,-490 880,-428.62 863.9,-359 852.13,-316.29"/>
<polygon fill="#333333" stroke="#333333" points="853.75,-315.56 850.72,-311.22 850.37,-316.5 853.75,-315.56"/>
</g>
<!-- transition_download_failed -->
<g id="node13" class="node">
<title>transition_download_failed</title>
<polygon fill="lightBlue" stroke="lightBlue" points="852,-959 708,-959 708,-887 852,-887 852,-959"/>
<text text-anchor="start" x="747" y="-925.6" font-family="Arial" font-weight="bold" font-size="8.00">download_failed</text>
<text text-anchor="start" x="751" y="-917.6" font-family="Arial" font-style="italic" font-size="8.00">Download failed</text>
<text text-anchor="middle" x="571" y="-961.6" font-family="Arial" font-size="8.00">Transition download_failed: Non&#45;200 or I/O error; may be retried with backoff</text>
</g>
<!-- place_downloaded&#45;&gt;transition_download_failed -->
<!-- downloaded -->
<g id="edge21" class="edge">
<title>place_downloaded&#45;&gt;transition_download_failed</title>
<path fill="none" stroke="#333333" d="M749.73,-995.29C754,-985.24 758.7,-974.18 763.09,-963.84"/>
<polygon fill="#333333" stroke="#333333" points="764.74,-964.44 765.08,-959.15 761.51,-963.07 764.74,-964.44"/>
</g>
<!-- transition_invalid_file -->
<g id="node14" class="node">
<title>transition_invalid_file</title>
<polygon fill="lightBlue" stroke="lightBlue" points="690,-959 546,-959 546,-887 690,-887 690,-959"/>
<text text-anchor="start" x="596.5" y="-925.6" font-family="Arial" font-weight="bold" font-size="8.00">invalid_file</text>
<text text-anchor="start" x="600.5" y="-917.6" font-family="Arial" font-style="italic" font-size="8.00">Invalid file</text>
<text text-anchor="middle" x="428.5" y="-880.6" font-family="Arial" font-size="8.00">Transition invalid_file: Unsupported media type or invalid attributes</text>
</g>
<!-- place_downloaded&#45;&gt;transition_invalid_file -->
<!-- downloaded -->
<g id="edge23" class="edge">
<title>place_downloaded&#45;&gt;transition_invalid_file</title>
<path fill="none" stroke="#333333" d="M699.26,-997.62C687.08,-986.59 673.34,-974.14 660.67,-962.66"/>
<polygon fill="#333333" stroke="#333333" points="661.66,-961.19 656.78,-959.13 659.31,-963.78 661.66,-961.19"/>
</g>
<!-- transition_triage -->
<g id="node15" class="node">
<title>transition_triage</title>
<polygon fill="lightBlue" stroke="lightBlue" points="528,-959 384,-959 384,-887 528,-887 528,-959"/>
<text text-anchor="start" x="444.5" y="-937.6" font-family="Arial" font-weight="bold" font-size="8.00">triage</text>
<text text-anchor="start" x="444.5" y="-929.6" font-family="Arial" font-style="italic" font-size="8.00">Triage</text>
<text text-anchor="start" x="443.5" y="-921.6" font-family="Arial" font-size="8.00">async: </text>
<text text-anchor="start" x="428.5" y="-905.6" font-family="Arial" font-size="8.00">Then: </text>
<text text-anchor="start" x="452.5" y="-905.6" font-family="Arial" text-decoration="underline" font-size="8.00">analyze</text>
<text text-anchor="start" x="480.5" y="-905.6" font-family="Arial" font-size="8.00"> </text>
<text text-anchor="middle" x="192" y="-961.6" font-family="Arial" font-size="8.00">Transition triage: Call ai&#45;tools /v1/responses model=auto; persist Observation[] (caption, ocr_text, keywords).</text>
</g>
<!-- place_downloaded&#45;&gt;transition_triage -->
<!-- downloaded -->
<g id="edge25" class="edge">
<title>place_downloaded&#45;&gt;transition_triage</title>
<path fill="none" stroke="#333333" d="M666.33,-1006.58C628.05,-993.22 579.63,-975.83 537,-959 535.75,-958.51 534.5,-958.01 533.23,-957.5"/>
<polygon fill="#333333" stroke="#333333" points="533.62,-955.77 528.33,-955.52 532.31,-959.02 533.62,-955.77"/>
</g>
<!-- transition_analyze -->
<g id="node16" class="node">
<title>transition_analyze</title>
<polygon fill="lightBlue" stroke="lightBlue" points="570,-743 426,-743 426,-671 570,-671 570,-743"/>
<text text-anchor="start" x="483" y="-713.6" font-family="Arial" font-weight="bold" font-size="8.00">analyze</text>
<text text-anchor="start" x="484" y="-705.6" font-family="Arial" font-style="italic" font-size="8.00">Analyze</text>
<text text-anchor="start" x="485.5" y="-697.6" font-family="Arial" font-size="8.00">async: </text>
<text text-anchor="middle" x="275" y="-745.6" font-family="Arial" font-size="8.00">Transition analyze: Compute blurhash/thumbhash, color palette, pHash, media probe</text>
</g>
<!-- place_downloaded&#45;&gt;transition_analyze -->
<!-- downloaded -->
<g id="edge27" class="edge">
<title>place_downloaded&#45;&gt;transition_analyze</title>
<path fill="none" stroke="#333333" d="M642.41,-1029.32C565.6,-1024.84 456.22,-1009.04 375,-959 323.23,-927.1 310.73,-908.52 291,-851 280.61,-820.73 272.4,-805.04 291,-779 320.35,-737.91 375.02,-720.35 420.8,-712.96"/>
<polygon fill="#333333" stroke="#333333" points="421.1,-714.68 425.77,-712.19 420.56,-711.23 421.1,-714.68"/>
</g>
<!-- place_triaged -->
<g id="node4" class="node">
<title>place_triaged</title>
<ellipse fill="lightgreen" stroke="lightBlue" cx="495" cy="-815" rx="194.67" ry="36"/>
<text text-anchor="start" x="481" y="-825.6" font-family="Arial" font-weight="bold" font-size="8.00">triaged</text>
<text text-anchor="start" x="341" y="-817.6" font-family="Arial" font-style="italic" font-size="8.00">Triage observations recorded (caption, ocr_text, keywords from ai&#45;tools /v1/responses)</text>
<text text-anchor="start" x="467.5" y="-801.6" font-family="Arial" font-size="8.00">Then: </text>
<text text-anchor="start" x="491.5" y="-801.6" font-family="Arial" text-decoration="underline" font-size="8.00">analyze</text>
<text text-anchor="start" x="519.5" y="-801.6" font-family="Arial" font-size="8.00"> </text>
<text text-anchor="middle" x="274.17" y="-853.6" font-family="Arial" font-size="8.00">Place triaged: </text>
</g>
<!-- place_triaged&#45;&gt;transition_analyze -->
<!-- triaged -->
<g id="edge29" class="edge">
<title>place_triaged&#45;&gt;transition_analyze</title>
<path fill="none" stroke="#333333" d="M495.99,-779C496.27,-769.24 496.57,-758.56 496.85,-748.51"/>
<polygon fill="#333333" stroke="#333333" points="498.61,-748.38 497,-743.33 495.11,-748.28 498.61,-748.38"/>
</g>
<!-- place_local_ocr -->
<g id="node5" class="node">
<title>place_local_ocr</title>
<ellipse fill="lightgreen" stroke="lightBlue" cx="1160" cy="-383" rx="75.67" ry="36"/>
<text text-anchor="start" x="1141.5" y="-385.6" font-family="Arial" font-weight="bold" font-size="8.00">local_ocr</text>
<text text-anchor="start" x="1096.5" y="-377.6" font-family="Arial" font-style="italic" font-size="8.00">Ocr/confidence from local Tesseract</text>
<text text-anchor="middle" x="1055.16" y="-421.6" font-family="Arial" font-size="8.00">Place local_ocr: </text>
</g>
<!-- place_local_ocr&#45;&gt;transition_local_ocr -->
<!-- local_ocr -->
<g id="edge13" class="edge">
<title>place_local_ocr&#45;&gt;transition_local_ocr</title>
<path fill="none" stroke="#333333" d="M1103.1,-359.16C1092.16,-354.98 1080.77,-350.75 1070,-347 1019.45,-329.39 961.91,-311.63 917.03,-298.28"/>
<polygon fill="#333333" stroke="#333333" points="917.46,-296.58 912.17,-296.84 916.47,-299.94 917.46,-296.58"/>
</g>
<!-- place_analyzed -->
<g id="node6" class="node">
<title>place_analyzed</title>
<ellipse fill="lightgreen" stroke="lightBlue" cx="508" cy="-599" rx="106.13" ry="36"/>
<text text-anchor="start" x="490.5" y="-601.6" font-family="Arial" font-weight="bold" font-size="8.00">analyzed</text>
<text text-anchor="start" x="416" y="-593.6" font-family="Arial" font-style="italic" font-size="8.00">Features computed (blurhash/palette/pHash/probe)</text>
<text text-anchor="middle" x="372.93" y="-637.6" font-family="Arial" font-size="8.00">Place analyzed: </text>
</g>
<!-- transition_finalize -->
<g id="node17" class="node">
<title>transition_finalize</title>
<polygon fill="lightBlue" stroke="lightBlue" points="585,-527 441,-527 441,-455 585,-455 585,-527"/>
<text text-anchor="start" x="499" y="-493.6" font-family="Arial" font-weight="bold" font-size="8.00">finalize</text>
<text text-anchor="start" x="499" y="-485.6" font-family="Arial" font-style="italic" font-size="8.00">Finalize</text>
<text text-anchor="middle" x="329" y="-529.6" font-family="Arial" font-size="8.00">Transition finalize: Finalize asset (indexing handled by listeners)</text>
</g>
<!-- place_analyzed&#45;&gt;transition_finalize -->
<!-- analyzed -->
<g id="edge31" class="edge">
<title>place_analyzed&#45;&gt;transition_finalize</title>
<path fill="none" stroke="#333333" d="M509.65,-563C510.11,-553.24 510.62,-542.56 511.09,-532.51"/>
<polygon fill="#333333" stroke="#333333" points="512.85,-532.4 511.33,-527.33 509.35,-532.24 512.85,-532.4"/>
</g>
<!-- place_analyzed&#45;&gt;transition_queue_ai -->
<!-- analyzed -->
<g id="edge35" class="edge">
<title>place_analyzed&#45;&gt;transition_queue_ai</title>
<path fill="none" stroke="#333333" d="M555.35,-566.71C569.36,-555.56 583.7,-542 594,-527 639.36,-460.95 661.9,-368.42 671.66,-316.14"/>
<polygon fill="#333333" stroke="#333333" points="673.39,-316.44 672.57,-311.2 669.94,-315.8 673.39,-316.44"/>
</g>
<!-- place_complete -->
<g id="node7" class="node">
<title>place_complete</title>
<ellipse fill="lightgreen" stroke="lightBlue" cx="531" cy="-383" rx="72" ry="36"/>
<text text-anchor="start" x="512.5" y="-385.6" font-family="Arial" font-weight="bold" font-size="8.00">complete</text>
<text text-anchor="start" x="516.5" y="-377.6" font-family="Arial" font-style="italic" font-size="8.00">All done</text>
<text text-anchor="middle" x="429.5" y="-421.6" font-family="Arial" font-size="8.00">Place complete: </text>
</g>
<!-- place_complete&#45;&gt;transition_queue_ai -->
<!-- complete -->
<g id="edge33" class="edge">
<title>place_complete&#45;&gt;transition_queue_ai</title>
<path fill="none" stroke="#333333" d="M571.17,-353.04C587.7,-341.11 607.09,-327.13 624.78,-314.37"/>
<polygon fill="#333333" stroke="#333333" points="626.21,-315.5 629.24,-311.16 624.16,-312.66 626.21,-315.5"/>
</g>
<!-- place_ai_ready -->
<g id="node8" class="node">
<title>place_ai_ready</title>
<ellipse fill="lightgreen" stroke="lightBlue" cx="693" cy="-167" rx="120.74" ry="36"/>
<text text-anchor="start" x="676" y="-177.6" font-family="Arial" font-weight="bold" font-size="8.00">ai_ready</text>
<text text-anchor="start" x="600.5" y="-169.6" font-family="Arial" font-style="italic" font-size="8.00">AI task pipeline active — aiQueue has pending tasks</text>
<text text-anchor="start" x="667" y="-153.6" font-family="Arial" font-size="8.00">Then: </text>
<text text-anchor="start" x="691" y="-153.6" font-family="Arial" text-decoration="underline" font-size="8.00">ai_task</text>
<text text-anchor="start" x="716" y="-153.6" font-family="Arial" font-size="8.00"> </text>
<text text-anchor="middle" x="543.13" y="-205.6" font-family="Arial" font-size="8.00">Place ai_ready: </text>
</g>
<!-- place_ai_ready&#45;&gt;transition_queue_ai -->
<!-- ai_ready -->
<g id="edge37" class="edge">
<title>place_ai_ready&#45;&gt;transition_queue_ai</title>
<path fill="none" stroke="#333333" d="M694.41,-203.33C693.42,-213.1 691.96,-223.79 690.26,-233.82"/>
<polygon fill="#333333" stroke="#333333" points="688.49,-233.77 689.34,-239 691.94,-234.38 688.49,-233.77"/>
</g>
<!-- transition_ai_task -->
<g id="node19" class="node">
<title>transition_ai_task</title>
<polygon fill="lightBlue" stroke="lightBlue" points="765,-95 621,-95 621,-23 765,-23 765,-95"/>
<text text-anchor="start" x="679" y="-65.6" font-family="Arial" font-weight="bold" font-size="8.00">ai_task</text>
<text text-anchor="start" x="663.5" y="-57.6" font-family="Arial" font-style="italic" font-size="8.00">Run next AI task</text>
<text text-anchor="start" x="680.5" y="-49.6" font-family="Arial" font-size="8.00">async: </text>
<text text-anchor="middle" x="463.5" y="-97.6" font-family="Arial" font-size="8.00">Transition ai_task: Execute the next task in aiQueue and record the result in aiCompleted</text>
</g>
<!-- place_ai_ready&#45;&gt;transition_ai_task -->
<!-- ai_ready -->
<g id="edge41" class="edge">
<title>place_ai_ready&#45;&gt;transition_ai_task</title>
<path fill="none" stroke="#333333" d="M686.61,-131C686.21,-121.24 686.14,-110.56 686.42,-100.51"/>
<polygon fill="#333333" stroke="#333333" points="688.17,-100.38 686.6,-95.33 684.68,-100.27 688.17,-100.38"/>
</g>
<!-- transition_ai_done -->
<g id="node20" class="node">
<title>transition_ai_done</title>
<polygon fill="lightBlue" stroke="lightBlue" points="603,-95 459,-95 459,-23 603,-23 603,-95"/>
<text text-anchor="start" x="515" y="-61.6" font-family="Arial" font-weight="bold" font-size="8.00">ai_done</text>
<text text-anchor="start" x="500.5" y="-53.6" font-family="Arial" font-style="italic" font-size="8.00">Finish AI pipeline</text>
<text text-anchor="middle" x="349" y="-25.6" font-family="Arial" font-size="8.00">Transition ai_done: All aiQueue tasks done; return to complete</text>
</g>
<!-- place_ai_ready&#45;&gt;transition_ai_done -->
<!-- ai_ready -->
<g id="edge43" class="edge">
<title>place_ai_ready&#45;&gt;transition_ai_done</title>
<path fill="none" stroke="#333333" d="M643.96,-133.91C626.7,-122.62 607.14,-109.82 589.2,-98.08"/>
<polygon fill="#333333" stroke="#333333" points="589.82,-96.4 584.68,-95.12 587.9,-99.33 589.82,-96.4"/>
</g>
<!-- place_failed -->
<g id="node9" class="node">
<title>place_failed</title>
<ellipse fill="lightgreen" stroke="lightBlue" cx="780" cy="-815" rx="72.25" ry="36"/>
<text text-anchor="start" x="769" y="-817.6" font-family="Arial" font-weight="bold" font-size="8.00">failed</text>
<text text-anchor="start" x="720" y="-809.6" font-family="Arial" font-style="italic" font-size="8.00">Terminal error / exhausted retries</text>
<text text-anchor="middle" x="684.88" y="-853.6" font-family="Arial" font-size="8.00">Place failed: </text>
</g>
<!-- place_failed&#45;&gt;transition_download -->
<!-- failed -->
<g id="edge5" class="edge">
<title>place_failed&#45;&gt;transition_download</title>
<path fill="none" stroke="#333333" d="M824.55,-843.65C838.95,-855.12 853.2,-869.8 861,-887 874.21,-916.15 864.49,-927.19 861,-959 855.63,-1007.88 864.38,-1026.16 837,-1067 828.63,-1079.48 817.27,-1090.42 805.16,-1099.74"/>
<polygon fill="#333333" stroke="#333333" points="803.98,-1098.44 801.03,-1102.84 806.08,-1101.24 803.98,-1098.44"/>
</g>
<!-- place_failed&#45;&gt;transition_local_ocr -->
<!-- failed -->
<g id="edge11" class="edge">
<title>place_failed&#45;&gt;transition_local_ocr</title>
<path fill="none" stroke="#333333" d="M790.88,-779.18C803.03,-737.15 821,-664.12 821,-600 821,-600 821,-600 821,-490 821,-429.25 828.69,-359.17 834.29,-316.23"/>
<polygon fill="#333333" stroke="#333333" points="836.04,-316.32 834.96,-311.13 832.57,-315.86 836.04,-316.32"/>
</g>
<!-- transition_download&#45;&gt;place_downloaded -->
<g id="edge2" class="edge">
<title>transition_download&#45;&gt;place_downloaded</title>
<path fill="none" stroke="#333333" d="M728.61,-1103C728.2,-1093.14 728.14,-1082.34 728.43,-1072.2"/>
<polygon fill="#333333" stroke="#333333" points="730.19,-1072.02 728.61,-1066.97 726.69,-1071.9 730.19,-1072.02"/>
</g>
<!-- transition_download&#45;&gt;place_downloaded -->
<g id="edge4" class="edge">
<title>transition_download&#45;&gt;place_downloaded</title>
<path fill="none" stroke="#333333" d="M741.39,-1103C741.8,-1093.14 741.86,-1082.34 741.57,-1072.2"/>
<polygon fill="#333333" stroke="#333333" points="743.31,-1071.9 741.39,-1066.97 739.81,-1072.02 743.31,-1071.9"/>
</g>
<!-- transition_download&#45;&gt;place_downloaded -->
<g id="edge6" class="edge">
<title>transition_download&#45;&gt;place_downloaded</title>
<path fill="none" stroke="#333333" d="M728.61,-1103C728.2,-1093.14 728.14,-1082.34 728.43,-1072.2"/>
<polygon fill="#333333" stroke="#333333" points="730.19,-1072.02 728.61,-1066.97 726.69,-1071.9 730.19,-1072.02"/>
</g>
<!-- transition_local_ocr&#45;&gt;place_ai_ready -->
<g id="edge8" class="edge">
<title>transition_local_ocr&#45;&gt;place_ai_ready</title>
<path fill="none" stroke="#333333" d="M767.72,-240.17C750.71,-229.3 733.69,-217.18 719.72,-206.03"/>
<polygon fill="#333333" stroke="#333333" points="720.47,-204.39 715.49,-202.6 718.27,-207.11 720.47,-204.39"/>
</g>
<!-- transition_local_ocr&#45;&gt;place_ai_ready -->
<g id="edge10" class="edge">
<title>transition_local_ocr&#45;&gt;place_ai_ready</title>
<path fill="none" stroke="#333333" d="M778.68,-239C762.64,-228.08 745.85,-216.01 731.33,-204.97"/>
<polygon fill="#333333" stroke="#333333" points="732.34,-203.53 727.3,-201.88 730.21,-206.31 732.34,-203.53"/>
</g>
<!-- transition_local_ocr&#45;&gt;place_ai_ready -->
<g id="edge12" class="edge">
<title>transition_local_ocr&#45;&gt;place_ai_ready</title>
<path fill="none" stroke="#333333" d="M791.46,-239C775.71,-227.64 758.23,-215.04 742.42,-203.64"/>
<polygon fill="#333333" stroke="#333333" points="743.09,-201.96 738.01,-200.46 741.04,-204.8 743.09,-201.96"/>
</g>
<!-- transition_local_ocr&#45;&gt;place_ai_ready -->
<g id="edge14" class="edge">
<title>transition_local_ocr&#45;&gt;place_ai_ready</title>
<path fill="none" stroke="#333333" d="M804.24,-239C788.73,-227.1 770.3,-213.83 752.87,-202.01"/>
<polygon fill="#333333" stroke="#333333" points="753.58,-200.39 748.46,-199.04 751.63,-203.29 753.58,-200.39"/>
</g>
<!-- transition_local_ocr&#45;&gt;place_ai_ready -->
<g id="edge16" class="edge">
<title>transition_local_ocr&#45;&gt;place_ai_ready</title>
<path fill="none" stroke="#333333" d="M817.03,-239C801.75,-226.5 782.15,-212.48 762.75,-200.22"/>
<polygon fill="#333333" stroke="#333333" points="763.52,-198.64 758.35,-197.47 761.66,-201.61 763.52,-198.64"/>
</g>
<!-- transition_iiif&#45;&gt;place_iiif -->
<g id="edge18" class="edge">
<title>transition_iiif&#45;&gt;place_iiif</title>
<path fill="none" stroke="#333333" d="M956,-1103C956,-1093.24 956,-1082.56 956,-1072.51"/>
<polygon fill="#333333" stroke="#333333" points="957.75,-1072.33 956,-1067.33 954.25,-1072.33 957.75,-1072.33"/>
</g>
<!-- transition_iiif&#45;&gt;place_iiif -->
<g id="edge20" class="edge">
<title>transition_iiif&#45;&gt;place_iiif</title>
<path fill="none" stroke="#333333" d="M949.61,-1103C949.2,-1093.14 949.14,-1082.34 949.43,-1072.2"/>
<polygon fill="#333333" stroke="#333333" points="951.19,-1072.02 949.61,-1066.97 947.69,-1071.9 951.19,-1072.02"/>
</g>
<!-- transition_download_failed&#45;&gt;place_failed -->
<g id="edge22" class="edge">
<title>transition_download_failed&#45;&gt;place_failed</title>
<path fill="none" stroke="#333333" d="M780,-887C780,-877.24 780,-866.56 780,-856.51"/>
<polygon fill="#333333" stroke="#333333" points="781.75,-856.33 780,-851.33 778.25,-856.33 781.75,-856.33"/>
</g>
<!-- transition_invalid_file&#45;&gt;place_failed -->
<g id="edge24" class="edge">
<title>transition_invalid_file&#45;&gt;place_failed</title>
<path fill="none" stroke="#333333" d="M671.49,-887C691.29,-874.05 713.57,-859.47 732.76,-846.91"/>
<polygon fill="#333333" stroke="#333333" points="733.84,-848.3 737.06,-844.09 731.92,-845.37 733.84,-848.3"/>
</g>
<!-- transition_triage&#45;&gt;place_triaged -->
<g id="edge26" class="edge">
<title>transition_triage&#45;&gt;place_triaged</title>
<path fill="none" stroke="#333333" d="M468.88,-887C472.54,-877.05 476.55,-866.14 480.31,-855.92"/>
<polygon fill="#333333" stroke="#333333" points="482.05,-856.26 482.14,-850.97 478.77,-855.05 482.05,-856.26"/>
</g>
<!-- transition_analyze&#45;&gt;place_analyzed -->
<g id="edge28" class="edge">
<title>transition_analyze&#45;&gt;place_analyzed</title>
<path fill="none" stroke="#333333" d="M494.91,-671C495.43,-661.14 496.39,-650.34 497.64,-640.2"/>
<polygon fill="#333333" stroke="#333333" points="499.41,-640.15 498.31,-634.97 495.94,-639.7 499.41,-640.15"/>
</g>
<!-- transition_analyze&#45;&gt;place_analyzed -->
<g id="edge30" class="edge">
<title>transition_analyze&#45;&gt;place_analyzed</title>
<path fill="none" stroke="#333333" d="M507.69,-671C509.02,-661.24 510.09,-650.56 510.76,-640.51"/>
<polygon fill="#333333" stroke="#333333" points="512.52,-640.42 511.07,-635.33 509.02,-640.21 512.52,-640.42"/>
</g>
<!-- transition_finalize&#45;&gt;place_complete -->
<g id="edge32" class="edge">
<title>transition_finalize&#45;&gt;place_complete</title>
<path fill="none" stroke="#333333" d="M518.94,-455C520.63,-445.05 522.49,-434.14 524.22,-423.92"/>
<polygon fill="#333333" stroke="#333333" points="525.95,-424.19 525.06,-418.97 522.5,-423.6 525.95,-424.19"/>
</g>
<!-- transition_queue_ai&#45;&gt;place_ai_ready -->
<g id="edge34" class="edge">
<title>transition_queue_ai&#45;&gt;place_ai_ready</title>
<path fill="none" stroke="#333333" d="M670.17,-239C670.76,-229.05 672.18,-218.14 674.22,-207.92"/>
<polygon fill="#333333" stroke="#333333" points="675.95,-208.22 675.27,-202.97 672.52,-207.49 675.95,-208.22"/>
</g>
<!-- transition_queue_ai&#45;&gt;place_ai_ready -->
<g id="edge36" class="edge">
<title>transition_queue_ai&#45;&gt;place_ai_ready</title>
<path fill="none" stroke="#333333" d="M682.95,-239C684.33,-229.24 685.85,-218.56 687.27,-208.51"/>
<polygon fill="#333333" stroke="#333333" points="689.03,-208.52 688,-203.33 685.57,-208.03 689.03,-208.52"/>
</g>
<!-- transition_queue_ai&#45;&gt;place_ai_ready -->
<g id="edge38" class="edge">
<title>transition_queue_ai&#45;&gt;place_ai_ready</title>
<path fill="none" stroke="#333333" d="M695.74,-239C697.95,-229.14 699.6,-218.34 700.46,-208.2"/>
<polygon fill="#333333" stroke="#333333" points="702.22,-208.08 700.83,-202.97 698.73,-207.83 702.22,-208.08"/>
</g>
<!-- transition_queue_ai&#45;&gt;place_ai_ready -->
<g id="edge40" class="edge">
<title>transition_queue_ai&#45;&gt;place_ai_ready</title>
<path fill="none" stroke="#333333" d="M676.56,-239C677.56,-229.05 679.04,-218.14 680.79,-207.92"/>
<polygon fill="#333333" stroke="#333333" points="682.52,-208.19 681.66,-202.97 679.07,-207.58 682.52,-208.19"/>
</g>
<!-- transition_ai_task&#45;&gt;place_ai_ready -->
<g id="edge42" class="edge">
<title>transition_ai_task&#45;&gt;place_ai_ready</title>
<path fill="none" stroke="#333333" d="M699.4,-95.33C699.8,-105.1 699.86,-115.79 699.57,-125.82"/>
<polygon fill="#333333" stroke="#333333" points="697.82,-125.94 699.39,-131 701.31,-126.06 697.82,-125.94"/>
</g>
<!-- transition_ai_done&#45;&gt;place_complete -->
<g id="edge44" class="edge">
<title>transition_ai_done&#45;&gt;place_complete</title>
<path fill="none" stroke="#333333" d="M531,-95.03C531,-155.25 531,-278.03 531,-341.7"/>
<polygon fill="#333333" stroke="#333333" points="529.25,-341.93 531,-346.93 532.75,-341.93 529.25,-341.93"/>
</g>
</g>
</svg>
