<?xml version="1.0" encoding="UTF-8" standalone="no"?>
<!DOCTYPE svg PUBLIC "-//W3C//DTD SVG 1.1//EN"
 "http://www.w3.org/Graphics/SVG/1.1/DTD/svg11.dtd">
<!-- Generated by graphviz version 2.43.0 (0)
 -->
<!-- Title: workflow Pages: 1 -->
<svg width="553pt" height="328pt"
 viewBox="0.00 0.00 553.00 328.00" xmlns="http://www.w3.org/2000/svg" xmlns:xlink="http://www.w3.org/1999/xlink">
<g id="graph0" class="graph" transform="scale(1 1) rotate(0) translate(4 324)">
<title>workflow</title>
<polygon fill="white" stroke="transparent" points="-4,4 -4,-324 549,-324 549,4 -4,4"/>
<text text-anchor="start" x="221.5" y="-8.8" font-family="Times,serif" font-weight="bold" font-size="14.00">FileWorkflow</text>
<!-- place_new_dir -->
<g id="node1" class="node">
<title>place_new_dir</title>
<ellipse fill="lightgreen" stroke="lightBlue" cx="149" cy="-275" rx="72" ry="36"/>
<text text-anchor="start" x="133.5" y="-281.6" font-family="Arial" font-weight="bold" font-size="8.00">new_dir</text>
<text text-anchor="start" x="130.5" y="-265.6" font-family="Arial" font-size="8.00">Then: </text>
<text text-anchor="start" x="154.5" y="-265.6" font-family="Arial" text-decoration="underline" font-size="8.00">list</text>
<text text-anchor="start" x="164.5" y="-265.6" font-family="Arial" font-size="8.00"> </text>
<text text-anchor="middle" x="49.5" y="-313.6" font-family="Arial" font-size="8.00">Place new_dir: </text>
</g>
<!-- transition_list -->
<g id="node6" class="node">
<title>transition_list</title>
<polygon fill="lightBlue" stroke="lightBlue" points="221,-203 77,-203 77,-131 221,-131 221,-203"/>
<text text-anchor="start" x="142.5" y="-169.6" font-family="Arial" font-weight="bold" font-size="8.00">list</text>
<text text-anchor="start" x="136.5" y="-161.6" font-family="Arial" font-size="8.00">async: </text>
<text text-anchor="middle" x="51.5" y="-205.6" font-family="Arial" font-size="8.00">Transition list: </text>
</g>
<!-- place_new_dir&#45;&gt;transition_list -->
<!-- new_dir -->
<g id="edge1" class="edge">
<title>place_new_dir&#45;&gt;transition_list</title>
<path fill="none" stroke="#333333" d="M149,-239C149,-229.24 149,-218.56 149,-208.51"/>
<polygon fill="#333333" stroke="#333333" points="150.75,-208.33 149,-203.33 147.25,-208.33 150.75,-208.33"/>
</g>
<!-- place_new_file -->
<g id="node2" class="node">
<title>place_new_file</title>
<ellipse fill="lightgreen" stroke="lightBlue" cx="392" cy="-275" rx="72" ry="36"/>
<text text-anchor="start" x="375.5" y="-274.1" font-family="Arial" font-weight="bold" font-size="8.00">new_file</text>
<text text-anchor="middle" x="292" y="-313.6" font-family="Arial" font-size="8.00">Place new_file: </text>
</g>
<!-- transition_download -->
<g id="node7" class="node">
<title>transition_download</title>
<polygon fill="lightBlue" stroke="lightBlue" points="383,-203 239,-203 239,-131 383,-131 383,-203"/>
<text text-anchor="start" x="291" y="-169.6" font-family="Arial" font-weight="bold" font-size="8.00">download</text>
<text text-anchor="start" x="298.5" y="-161.6" font-family="Arial" font-size="8.00">async: </text>
<text text-anchor="middle" x="201" y="-205.6" font-family="Arial" font-size="8.00">Transition download: </text>
</g>
<!-- place_new_file&#45;&gt;transition_download -->
<!-- new_file -->
<g id="edge3" class="edge">
<title>place_new_file&#45;&gt;transition_download</title>
<path fill="none" stroke="#333333" d="M366.82,-241.04C358.63,-230.32 349.46,-218.33 340.95,-207.2"/>
<polygon fill="#333333" stroke="#333333" points="342.28,-206.05 337.85,-203.14 339.5,-208.18 342.28,-206.05"/>
</g>
<!-- transition_meta -->
<g id="node8" class="node">
<title>transition_meta</title>
<polygon fill="lightBlue" stroke="lightBlue" points="545,-203 401,-203 401,-131 545,-131 545,-203"/>
<text text-anchor="start" x="463.5" y="-173.6" font-family="Arial" font-weight="bold" font-size="8.00">meta</text>
<text text-anchor="start" x="418" y="-165.6" font-family="Arial" font-style="italic" font-size="8.00">Use s3 client to fetch metadata</text>
<text text-anchor="start" x="460.5" y="-157.6" font-family="Arial" font-size="8.00">async: </text>
<text text-anchor="middle" x="371" y="-205.6" font-family="Arial" font-size="8.00">Transition meta: </text>
</g>
<!-- place_new_file&#45;&gt;transition_meta -->
<!-- new_file -->
<g id="edge5" class="edge">
<title>place_new_file&#45;&gt;transition_meta</title>
<path fill="none" stroke="#333333" d="M417.18,-241.04C425.37,-230.32 434.54,-218.33 443.05,-207.2"/>
<polygon fill="#333333" stroke="#333333" points="444.5,-208.18 446.15,-203.14 441.72,-206.05 444.5,-208.18"/>
</g>
<!-- place_dir_has_listing -->
<g id="node3" class="node">
<title>place_dir_has_listing</title>
<ellipse fill="lightgreen" stroke="lightBlue" cx="149" cy="-59" rx="72" ry="36"/>
<text text-anchor="start" x="119.5" y="-58.1" font-family="Arial" font-weight="bold" font-size="8.00">dir_has_listing</text>
<text text-anchor="middle" x="38.5" y="-97.6" font-family="Arial" font-size="8.00">Place dir_has_listing: </text>
</g>
<!-- place_downloaded -->
<g id="node4" class="node">
<title>place_downloaded</title>
<ellipse fill="lightgreen" stroke="lightBlue" cx="311" cy="-59" rx="72" ry="36"/>
<text text-anchor="start" x="286.5" y="-58.1" font-family="Arial" font-weight="bold" font-size="8.00">downloaded</text>
<text text-anchor="middle" x="204" y="-97.6" font-family="Arial" font-size="8.00">Place downloaded: </text>
</g>
<!-- place_file_has_meta -->
<g id="node5" class="node">
<title>place_file_has_meta</title>
<ellipse fill="lightgreen" stroke="lightBlue" cx="473" cy="-59" rx="72" ry="36"/>
<text text-anchor="start" x="445.5" y="-58.1" font-family="Arial" font-weight="bold" font-size="8.00">file_has_meta</text>
<text text-anchor="middle" x="363" y="-97.6" font-family="Arial" font-size="8.00">Place file_has_meta: </text>
</g>
<!-- transition_list&#45;&gt;place_dir_has_listing -->
<g id="edge2" class="edge">
<title>transition_list&#45;&gt;place_dir_has_listing</title>
<path fill="none" stroke="#333333" d="M149,-131C149,-121.24 149,-110.56 149,-100.51"/>
<polygon fill="#333333" stroke="#333333" points="150.75,-100.33 149,-95.33 147.25,-100.33 150.75,-100.33"/>
</g>
<!-- transition_download&#45;&gt;place_downloaded -->
<g id="edge4" class="edge">
<title>transition_download&#45;&gt;place_downloaded</title>
<path fill="none" stroke="#333333" d="M311,-131C311,-121.24 311,-110.56 311,-100.51"/>
<polygon fill="#333333" stroke="#333333" points="312.75,-100.33 311,-95.33 309.25,-100.33 312.75,-100.33"/>
</g>
<!-- transition_meta&#45;&gt;place_file_has_meta -->
<g id="edge6" class="edge">
<title>transition_meta&#45;&gt;place_file_has_meta</title>
<path fill="none" stroke="#333333" d="M473,-131C473,-121.24 473,-110.56 473,-100.51"/>
<polygon fill="#333333" stroke="#333333" points="474.75,-100.33 473,-95.33 471.25,-100.33 474.75,-100.33"/>
</g>
</g>
</svg>
