<?xml version="1.0" encoding="UTF-8" standalone="no"?>
<!DOCTYPE svg PUBLIC "-//W3C//DTD SVG 1.1//EN"
 "http://www.w3.org/Graphics/SVG/1.1/DTD/svg11.dtd">
<!-- Generated by graphviz version 2.43.0 (0)
 -->
<!-- Title: workflow Pages: 1 -->
<svg width="390pt" height="328pt"
 viewBox="0.00 0.00 390.00 328.00" xmlns="http://www.w3.org/2000/svg" xmlns:xlink="http://www.w3.org/1999/xlink">
<g id="graph0" class="graph" transform="scale(1 1) rotate(0) translate(4 324)">
<title>workflow</title>
<polygon fill="white" stroke="transparent" points="-4,4 -4,-324 386,-324 386,4 -4,4"/>
<text text-anchor="start" x="140" y="-8.8" font-family="Times,serif" font-weight="bold" font-size="14.00">FileWorkflow</text>
<!-- place_file -->
<g id="node1" class="node">
<title>place_file</title>
<ellipse fill="lightgreen" stroke="lightBlue" cx="148" cy="-275" rx="72" ry="36"/>
<text text-anchor="start" x="141.5" y="-274.1" font-family="Arial" font-weight="bold" font-size="8.00">file</text>
<text text-anchor="middle" x="57.5" y="-313.6" font-family="Arial" font-size="8.00">Place file: </text>
</g>
<!-- transition_download -->
<g id="node6" class="node">
<title>transition_download</title>
<polygon fill="lightBlue" stroke="lightBlue" points="220,-203 76,-203 76,-131 220,-131 220,-203"/>
<text text-anchor="start" x="128" y="-166.1" font-family="Arial" font-weight="bold" font-size="8.00">download</text>
<text text-anchor="middle" x="38" y="-205.6" font-family="Arial" font-size="8.00">Transition download: </text>
</g>
<!-- place_file&#45;&gt;transition_download -->
<!-- file -->
<g id="edge3" class="edge">
<title>place_file&#45;&gt;transition_download</title>
<path fill="none" stroke="#333333" d="M148,-239C148,-229.24 148,-218.56 148,-208.51"/>
<polygon fill="#333333" stroke="#333333" points="149.75,-208.33 148,-203.33 146.25,-208.33 149.75,-208.33"/>
</g>
<!-- place_listing -->
<g id="node2" class="node">
<title>place_listing</title>
<ellipse fill="lightgreen" stroke="lightBlue" cx="310" cy="-59" rx="72" ry="36"/>
<text text-anchor="start" x="297.5" y="-58.1" font-family="Arial" font-weight="bold" font-size="8.00">listing</text>
<text text-anchor="middle" x="215" y="-97.6" font-family="Arial" font-size="8.00">Place listing: </text>
</g>
<!-- place_downloaded -->
<g id="node3" class="node">
<title>place_downloaded</title>
<ellipse fill="lightgreen" stroke="lightBlue" cx="148" cy="-59" rx="72" ry="36"/>
<text text-anchor="start" x="123.5" y="-58.1" font-family="Arial" font-weight="bold" font-size="8.00">downloaded</text>
<text text-anchor="middle" x="41" y="-97.6" font-family="Arial" font-size="8.00">Place downloaded: </text>
</g>
<!-- place_dir -->
<g id="node4" class="node">
<title>place_dir</title>
<ellipse fill="lightgreen" stroke="lightBlue" cx="310" cy="-275" rx="72" ry="36"/>
<text text-anchor="start" x="304.5" y="-274.1" font-family="Arial" font-weight="bold" font-size="8.00">dir</text>
<text text-anchor="middle" x="220" y="-313.6" font-family="Arial" font-size="8.00">Place dir: </text>
</g>
<!-- transition_list -->
<g id="node5" class="node">
<title>transition_list</title>
<polygon fill="lightBlue" stroke="lightBlue" points="382,-203 238,-203 238,-131 382,-131 382,-203"/>
<text text-anchor="start" x="303.5" y="-166.1" font-family="Arial" font-weight="bold" font-size="8.00">list</text>
<text text-anchor="middle" x="212.5" y="-205.6" font-family="Arial" font-size="8.00">Transition list: </text>
</g>
<!-- place_dir&#45;&gt;transition_list -->
<!-- dir -->
<g id="edge1" class="edge">
<title>place_dir&#45;&gt;transition_list</title>
<path fill="none" stroke="#333333" d="M310,-239C310,-229.24 310,-218.56 310,-208.51"/>
<polygon fill="#333333" stroke="#333333" points="311.75,-208.33 310,-203.33 308.25,-208.33 311.75,-208.33"/>
</g>
<!-- transition_list&#45;&gt;place_listing -->
<g id="edge2" class="edge">
<title>transition_list&#45;&gt;place_listing</title>
<path fill="none" stroke="#333333" d="M310,-131C310,-121.24 310,-110.56 310,-100.51"/>
<polygon fill="#333333" stroke="#333333" points="311.75,-100.33 310,-95.33 308.25,-100.33 311.75,-100.33"/>
</g>
<!-- transition_download&#45;&gt;place_downloaded -->
<g id="edge4" class="edge">
<title>transition_download&#45;&gt;place_downloaded</title>
<path fill="none" stroke="#333333" d="M148,-131C148,-121.24 148,-110.56 148,-100.51"/>
<polygon fill="#333333" stroke="#333333" points="149.75,-100.33 148,-95.33 146.25,-100.33 149.75,-100.33"/>
</g>
</g>
</svg>
