<?xml version="1.0" encoding="UTF-8" standalone="no"?>
<!DOCTYPE svg PUBLIC "-//W3C//DTD SVG 1.1//EN"
 "http://www.w3.org/Graphics/SVG/1.1/DTD/svg11.dtd">
<!-- Generated by graphviz version 2.43.0 (0)
 -->
<!-- Title: workflow Pages: 1 -->
<svg width="646pt" height="760pt"
 viewBox="0.00 0.00 646.44 760.00" xmlns="http://www.w3.org/2000/svg" xmlns:xlink="http://www.w3.org/1999/xlink">
<g id="graph0" class="graph" transform="scale(1 1) rotate(0) translate(4 756)">
<title>workflow</title>
<polygon fill="white" stroke="transparent" points="-4,4 -4,-756 642.44,-756 642.44,4 -4,4"/>
<text text-anchor="start" x="258.72" y="-8.8" font-family="Times,serif" font-weight="bold" font-size="14.00">MediaWorkflow</text>
<!-- place_new -->
<g id="node1" class="node">
<title>place_new</title>
<ellipse fill="lightgreen" stroke="lightBlue" cx="385" cy="-707" rx="72" ry="36"/>
<text text-anchor="start" x="377" y="-706.1" font-family="Arial" font-weight="bold" font-size="8.00">new</text>
<text text-anchor="middle" x="292" y="-745.6" font-family="Arial" font-size="8.00">Place new: </text>
</g>
<!-- transition_download -->
<g id="node6" class="node">
<title>transition_download</title>
<polygon fill="lightBlue" stroke="lightBlue" points="457,-635 313,-635 313,-563 457,-563 457,-635"/>
<text text-anchor="start" x="365" y="-605.6" font-family="Arial" font-weight="bold" font-size="8.00">download</text>
<text text-anchor="start" x="334" y="-597.6" font-family="Arial" font-style="italic" font-size="8.00">Download originalUrl to /tmp</text>
<text text-anchor="start" x="372.5" y="-589.6" font-family="Arial" font-size="8.00">async: </text>
<text text-anchor="middle" x="275" y="-637.6" font-family="Arial" font-size="8.00">Transition download: </text>
</g>
<!-- place_new&#45;&gt;transition_download -->
<!-- new -->
<g id="edge1" class="edge">
<title>place_new&#45;&gt;transition_download</title>
<path fill="none" stroke="#333333" d="M385,-671C385,-661.24 385,-650.56 385,-640.51"/>
<polygon fill="#333333" stroke="#333333" points="386.75,-640.33 385,-635.33 383.25,-640.33 386.75,-640.33"/>
</g>
<!-- place_downloaded -->
<g id="node2" class="node">
<title>place_downloaded</title>
<ellipse fill="lightgreen" stroke="lightBlue" cx="385" cy="-491" rx="72" ry="36"/>
<text text-anchor="start" x="360.5" y="-490.1" font-family="Arial" font-weight="bold" font-size="8.00">downloaded</text>
<text text-anchor="middle" x="278" y="-529.6" font-family="Arial" font-size="8.00">Place downloaded: </text>
</g>
<!-- place_downloaded&#45;&gt;transition_download -->
<!-- downloaded -->
<g id="edge3" class="edge">
<title>place_downloaded&#45;&gt;transition_download</title>
<path fill="none" stroke="#333333" d="M391.39,-526.97C391.8,-536.82 391.86,-547.62 391.57,-557.76"/>
<polygon fill="#333333" stroke="#333333" points="389.82,-557.94 391.39,-563 393.31,-558.06 389.82,-557.94"/>
</g>
<!-- transition_download_failed -->
<g id="node7" class="node">
<title>transition_download_failed</title>
<polygon fill="lightBlue" stroke="lightBlue" points="619,-419 475,-419 475,-347 619,-347 619,-419"/>
<text text-anchor="start" x="514" y="-382.1" font-family="Arial" font-weight="bold" font-size="8.00">download_failed</text>
<text text-anchor="middle" x="425" y="-421.6" font-family="Arial" font-size="8.00">Transition download_failed: </text>
</g>
<!-- place_downloaded&#45;&gt;transition_download_failed -->
<!-- downloaded -->
<g id="edge7" class="edge">
<title>place_downloaded&#45;&gt;transition_download_failed</title>
<path fill="none" stroke="#333333" d="M427.99,-461.87C446.72,-449.62 468.95,-435.07 489.1,-421.88"/>
<polygon fill="#333333" stroke="#333333" points="490.14,-423.29 493.37,-419.09 488.23,-420.37 490.14,-423.29"/>
</g>
<!-- transition_invalid_file -->
<g id="node8" class="node">
<title>transition_invalid_file</title>
<polygon fill="lightBlue" stroke="lightBlue" points="457,-419 313,-419 313,-347 457,-347 457,-419"/>
<text text-anchor="start" x="363.5" y="-382.1" font-family="Arial" font-weight="bold" font-size="8.00">invalid_file</text>
<text text-anchor="middle" x="274" y="-421.6" font-family="Arial" font-size="8.00">Transition invalid_file: </text>
</g>
<!-- place_downloaded&#45;&gt;transition_invalid_file -->
<!-- downloaded -->
<g id="edge9" class="edge">
<title>place_downloaded&#45;&gt;transition_invalid_file</title>
<path fill="none" stroke="#333333" d="M385,-455C385,-445.24 385,-434.56 385,-424.51"/>
<polygon fill="#333333" stroke="#333333" points="386.75,-424.33 385,-419.33 383.25,-424.33 386.75,-424.33"/>
</g>
<!-- transition_resize -->
<g id="node9" class="node">
<title>transition_resize</title>
<polygon fill="lightBlue" stroke="lightBlue" points="242,-419 98,-419 98,-347 242,-347 242,-419"/>
<text text-anchor="start" x="158.5" y="-382.1" font-family="Arial" font-weight="bold" font-size="8.00">resize</text>
<text text-anchor="middle" x="66.5" y="-421.6" font-family="Arial" font-size="8.00">Transition resize: </text>
</g>
<!-- place_downloaded&#45;&gt;transition_resize -->
<!-- downloaded -->
<g id="edge11" class="edge">
<title>place_downloaded&#45;&gt;transition_resize</title>
<path fill="none" stroke="#333333" d="M334.59,-465.15C308.2,-452.14 275.34,-435.94 245.94,-421.44"/>
<polygon fill="#333333" stroke="#333333" points="246.51,-419.77 241.26,-419.13 244.97,-422.91 246.51,-419.77"/>
</g>
<!-- transition_archive -->
<g id="node10" class="node">
<title>transition_archive</title>
<polygon fill="lightBlue" stroke="lightBlue" points="373,-203 229,-203 229,-131 373,-131 373,-203"/>
<text text-anchor="start" x="286.5" y="-169.6" font-family="Arial" font-weight="bold" font-size="8.00">archive</text>
<text text-anchor="start" x="288.5" y="-161.6" font-family="Arial" font-size="8.00">async: </text>
<text text-anchor="middle" x="195.5" y="-205.6" font-family="Arial" font-size="8.00">Transition archive: </text>
</g>
<!-- place_downloaded&#45;&gt;transition_archive -->
<!-- downloaded -->
<g id="edge15" class="edge">
<title>place_downloaded&#45;&gt;transition_archive</title>
<path fill="none" stroke="#333333" d="M340.56,-462.3C326.17,-450.83 311.9,-436.16 304,-419 272.46,-350.5 282.19,-259.91 291.81,-208.4"/>
<polygon fill="#333333" stroke="#333333" points="293.57,-208.47 292.8,-203.23 290.14,-207.81 293.57,-208.47"/>
</g>
<!-- place_resized -->
<g id="node3" class="node">
<title>place_resized</title>
<ellipse fill="lightgreen" stroke="lightBlue" cx="170" cy="-275" rx="72" ry="36"/>
<text text-anchor="start" x="156" y="-281.6" font-family="Arial" font-weight="bold" font-size="8.00">resized</text>
<text text-anchor="start" x="143.5" y="-265.6" font-family="Arial" font-size="8.00">Then: </text>
<text text-anchor="start" x="167.5" y="-265.6" font-family="Arial" text-decoration="underline" font-size="8.00">archive</text>
<text text-anchor="start" x="193.5" y="-265.6" font-family="Arial" font-size="8.00"> </text>
<text text-anchor="middle" x="72" y="-313.6" font-family="Arial" font-size="8.00">Place resized: </text>
</g>
<!-- place_resized&#45;&gt;transition_resize -->
<!-- resized -->
<g id="edge13" class="edge">
<title>place_resized&#45;&gt;transition_resize</title>
<path fill="none" stroke="#333333" d="M176.39,-310.97C176.8,-320.82 176.86,-331.62 176.57,-341.76"/>
<polygon fill="#333333" stroke="#333333" points="174.82,-341.94 176.39,-347 178.31,-342.06 174.82,-341.94"/>
</g>
<!-- place_resized&#45;&gt;transition_archive -->
<!-- resized -->
<g id="edge17" class="edge">
<title>place_resized&#45;&gt;transition_archive</title>
<path fill="none" stroke="#333333" d="M207.19,-243.91C221.57,-232.27 238.21,-218.81 253.44,-206.48"/>
<polygon fill="#333333" stroke="#333333" points="254.91,-207.54 257.7,-203.04 252.71,-204.82 254.91,-207.54"/>
</g>
<!-- transition_refresh -->
<g id="node11" class="node">
<title>transition_refresh</title>
<polygon fill="lightBlue" stroke="lightBlue" points="211,-203 67,-203 67,-131 211,-131 211,-203"/>
<text text-anchor="start" x="125" y="-169.6" font-family="Arial" font-weight="bold" font-size="8.00">refresh</text>
<text text-anchor="start" x="126.5" y="-161.6" font-family="Arial" font-size="8.00">async: </text>
<text text-anchor="middle" x="33.5" y="-205.6" font-family="Arial" font-size="8.00">Transition refresh: </text>
</g>
<!-- place_resized&#45;&gt;transition_refresh -->
<!-- resized -->
<g id="edge19" class="edge">
<title>place_resized&#45;&gt;transition_refresh</title>
<path fill="none" stroke="#333333" d="M153.67,-239.88C150.27,-229.79 146.94,-218.65 144.19,-208.21"/>
<polygon fill="#333333" stroke="#333333" points="145.83,-207.56 142.88,-203.15 142.44,-208.43 145.83,-207.56"/>
</g>
<!-- place_archived -->
<g id="node4" class="node">
<title>place_archived</title>
<ellipse fill="lightgreen" stroke="lightBlue" cx="301" cy="-59" rx="72" ry="36"/>
<text text-anchor="start" x="284" y="-58.1" font-family="Arial" font-weight="bold" font-size="8.00">archived</text>
<text text-anchor="middle" x="200.5" y="-97.6" font-family="Arial" font-size="8.00">Place archived: </text>
</g>
<!-- place_failed -->
<g id="node5" class="node">
<title>place_failed</title>
<ellipse fill="lightgreen" stroke="lightBlue" cx="547" cy="-275" rx="72" ry="36"/>
<text text-anchor="start" x="536" y="-274.1" font-family="Arial" font-weight="bold" font-size="8.00">failed</text>
<text text-anchor="middle" x="452" y="-313.6" font-family="Arial" font-size="8.00">Place failed: </text>
</g>
<!-- place_failed&#45;&gt;transition_download -->
<!-- failed -->
<g id="edge5" class="edge">
<title>place_failed&#45;&gt;transition_download</title>
<path fill="none" stroke="#333333" d="M591.55,-303.65C605.95,-315.12 620.2,-329.8 628,-347 641.21,-376.15 642.43,-390.44 628,-419 593.52,-487.23 519.41,-535.83 462.05,-565.01"/>
<polygon fill="#333333" stroke="#333333" points="460.93,-563.62 457.25,-567.43 462.5,-566.74 460.93,-563.62"/>
</g>
<!-- transition_download&#45;&gt;place_downloaded -->
<g id="edge2" class="edge">
<title>transition_download&#45;&gt;place_downloaded</title>
<path fill="none" stroke="#333333" d="M378.61,-563C378.2,-553.14 378.14,-542.34 378.43,-532.2"/>
<polygon fill="#333333" stroke="#333333" points="380.19,-532.02 378.61,-526.97 376.69,-531.9 380.19,-532.02"/>
</g>
<!-- transition_download&#45;&gt;place_downloaded -->
<g id="edge4" class="edge">
<title>transition_download&#45;&gt;place_downloaded</title>
<path fill="none" stroke="#333333" d="M391.39,-563C391.8,-553.14 391.86,-542.34 391.57,-532.2"/>
<polygon fill="#333333" stroke="#333333" points="393.31,-531.9 391.39,-526.97 389.81,-532.02 393.31,-531.9"/>
</g>
<!-- transition_download&#45;&gt;place_downloaded -->
<g id="edge6" class="edge">
<title>transition_download&#45;&gt;place_downloaded</title>
<path fill="none" stroke="#333333" d="M378.61,-563C378.2,-553.14 378.14,-542.34 378.43,-532.2"/>
<polygon fill="#333333" stroke="#333333" points="380.19,-532.02 378.61,-526.97 376.69,-531.9 380.19,-532.02"/>
</g>
<!-- transition_download_failed&#45;&gt;place_failed -->
<g id="edge8" class="edge">
<title>transition_download_failed&#45;&gt;place_failed</title>
<path fill="none" stroke="#333333" d="M547,-347C547,-337.24 547,-326.56 547,-316.51"/>
<polygon fill="#333333" stroke="#333333" points="548.75,-316.33 547,-311.33 545.25,-316.33 548.75,-316.33"/>
</g>
<!-- transition_invalid_file&#45;&gt;place_failed -->
<g id="edge10" class="edge">
<title>transition_invalid_file&#45;&gt;place_failed</title>
<path fill="none" stroke="#333333" d="M438.49,-347C458.29,-334.05 480.57,-319.47 499.76,-306.91"/>
<polygon fill="#333333" stroke="#333333" points="500.84,-308.3 504.06,-304.09 498.92,-305.37 500.84,-308.3"/>
</g>
<!-- transition_resize&#45;&gt;place_resized -->
<g id="edge12" class="edge">
<title>transition_resize&#45;&gt;place_resized</title>
<path fill="none" stroke="#333333" d="M170,-347C170,-337.24 170,-326.56 170,-316.51"/>
<polygon fill="#333333" stroke="#333333" points="171.75,-316.33 170,-311.33 168.25,-316.33 171.75,-316.33"/>
</g>
<!-- transition_resize&#45;&gt;place_resized -->
<g id="edge14" class="edge">
<title>transition_resize&#45;&gt;place_resized</title>
<path fill="none" stroke="#333333" d="M163.61,-347C163.2,-337.14 163.14,-326.34 163.43,-316.2"/>
<polygon fill="#333333" stroke="#333333" points="165.19,-316.02 163.61,-310.97 161.69,-315.9 165.19,-316.02"/>
</g>
<!-- transition_archive&#45;&gt;place_archived -->
<g id="edge16" class="edge">
<title>transition_archive&#45;&gt;place_archived</title>
<path fill="none" stroke="#333333" d="M294.61,-131C294.2,-121.14 294.14,-110.34 294.43,-100.2"/>
<polygon fill="#333333" stroke="#333333" points="296.19,-100.02 294.61,-94.97 292.69,-99.9 296.19,-100.02"/>
</g>
<!-- transition_archive&#45;&gt;place_archived -->
<g id="edge18" class="edge">
<title>transition_archive&#45;&gt;place_archived</title>
<path fill="none" stroke="#333333" d="M307.39,-131C307.8,-121.14 307.86,-110.34 307.57,-100.2"/>
<polygon fill="#333333" stroke="#333333" points="309.31,-99.9 307.39,-94.97 305.81,-100.02 309.31,-99.9"/>
</g>
<!-- transition_refresh&#45;&gt;place_resized -->
<g id="edge20" class="edge">
<title>transition_refresh&#45;&gt;place_resized</title>
<path fill="none" stroke="#333333" d="M155.74,-203.33C159.02,-213.19 162.23,-223.98 164.89,-234.1"/>
<polygon fill="#333333" stroke="#333333" points="163.21,-234.59 166.15,-239 166.6,-233.72 163.21,-234.59"/>
</g>
</g>
</svg>
