<?xml version="1.0" encoding="UTF-8" standalone="no"?>
<!DOCTYPE svg PUBLIC "-//W3C//DTD SVG 1.1//EN"
 "http://www.w3.org/Graphics/SVG/1.1/DTD/svg11.dtd">
<!-- Generated by graphviz version 2.43.0 (0)
 -->
<!-- Title: workflow Pages: 1 -->
<svg width="566pt" height="1192pt"
 viewBox="0.00 0.00 566.00 1192.00" xmlns="http://www.w3.org/2000/svg" xmlns:xlink="http://www.w3.org/1999/xlink">
<g id="graph0" class="graph" transform="scale(1 1) rotate(0) translate(4 1188)">
<title>workflow</title>
<polygon fill="white" stroke="transparent" points="-4,4 -4,-1188 562,-1188 562,4 -4,4"/>
<text text-anchor="start" x="226" y="-8.8" font-family="Times,serif" font-weight="bold" font-size="14.00">media_record</text>
<!-- place_new -->
<g id="node1" class="node">
<title>place_new</title>
<ellipse fill="lightgreen" stroke="lightBlue" cx="168" cy="-1139" rx="100.35" ry="36"/>
<text text-anchor="start" x="160" y="-1149.6" font-family="Arial" font-weight="bold" font-size="8.00">new</text>
<text text-anchor="start" x="92.5" y="-1141.6" font-family="Arial" font-style="italic" font-size="8.00">Record created and awaiting linked assets</text>
<text text-anchor="start" x="130" y="-1125.6" font-family="Arial" font-size="8.00">Then: </text>
<text text-anchor="start" x="154" y="-1125.6" font-family="Arial" text-decoration="underline" font-size="8.00">group_assets</text>
<text text-anchor="start" x="203" y="-1125.6" font-family="Arial" font-size="8.00"> </text>
<text text-anchor="middle" x="46.58" y="-1177.6" font-family="Arial" font-size="8.00">Place new: </text>
</g>
<!-- transition_group_assets -->
<g id="node8" class="node">
<title>transition_group_assets</title>
<polygon fill="lightBlue" stroke="lightBlue" points="240,-1067 96,-1067 96,-995 240,-995 240,-1067"/>
<text text-anchor="start" x="140.5" y="-1033.6" font-family="Arial" font-weight="bold" font-size="8.00">group_assets</text>
<text text-anchor="start" x="148" y="-1025.6" font-family="Arial" font-style="italic" font-size="8.00">Link assets</text>
<text text-anchor="middle" x="51" y="-1069.6" font-family="Arial" font-size="8.00">Transition group_assets: </text>
</g>
<!-- place_new&#45;&gt;transition_group_assets -->
<!-- new -->
<g id="edge1" class="edge">
<title>place_new&#45;&gt;transition_group_assets</title>
<path fill="none" stroke="#333333" d="M168,-1103C168,-1093.24 168,-1082.56 168,-1072.51"/>
<polygon fill="#333333" stroke="#333333" points="169.75,-1072.33 168,-1067.33 166.25,-1072.33 169.75,-1072.33"/>
</g>
<!-- place_grouped -->
<g id="node2" class="node">
<title>place_grouped</title>
<ellipse fill="lightgreen" stroke="lightBlue" cx="168" cy="-923" rx="76.94" ry="36"/>
<text text-anchor="start" x="151" y="-933.6" font-family="Arial" font-weight="bold" font-size="8.00">grouped</text>
<text text-anchor="start" x="112" y="-925.6" font-family="Arial" font-style="italic" font-size="8.00">Assets associated to the record</text>
<text text-anchor="start" x="115.5" y="-909.6" font-family="Arial" font-size="8.00">Then: </text>
<text text-anchor="start" x="139.5" y="-909.6" font-family="Arial" text-decoration="underline" font-size="8.00">queue_split</text>
<text text-anchor="start" x="180.5" y="-909.6" font-family="Arial" font-size="8.00"> </text>
<text text-anchor="start" x="183.5" y="-909.6" font-family="Arial" text-decoration="underline" font-size="8.00">queue_ai</text>
<text text-anchor="start" x="217.5" y="-909.6" font-family="Arial" font-size="8.00"> </text>
<text text-anchor="middle" x="62.53" y="-961.6" font-family="Arial" font-size="8.00">Place grouped: </text>
</g>
<!-- transition_queue_split -->
<g id="node9" class="node">
<title>transition_queue_split</title>
<polygon fill="lightBlue" stroke="lightBlue" points="272,-851 128,-851 128,-779 272,-779 272,-851"/>
<text text-anchor="start" x="176.5" y="-829.6" font-family="Arial" font-weight="bold" font-size="8.00">queue_split</text>
<text text-anchor="start" x="180" y="-821.6" font-family="Arial" font-style="italic" font-size="8.00">Queue split</text>
<text text-anchor="start" x="187.5" y="-813.6" font-family="Arial" font-size="8.00">async: </text>
<text text-anchor="start" x="166" y="-797.6" font-family="Arial" font-size="8.00">Then: </text>
<text text-anchor="start" x="190" y="-797.6" font-family="Arial" text-decoration="underline" font-size="8.00">split_assets</text>
<text text-anchor="start" x="231" y="-797.6" font-family="Arial" font-size="8.00"> </text>
<text text-anchor="middle" x="87" y="-853.6" font-family="Arial" font-size="8.00">Transition queue_split: </text>
</g>
<!-- place_grouped&#45;&gt;transition_queue_split -->
<!-- grouped -->
<g id="edge5" class="edge">
<title>place_grouped&#45;&gt;transition_queue_split</title>
<path fill="none" stroke="#333333" d="M178.48,-887.29C181.49,-877.33 184.79,-866.38 187.89,-856.12"/>
<polygon fill="#333333" stroke="#333333" points="189.62,-856.44 189.39,-851.15 186.27,-855.43 189.62,-856.44"/>
</g>
<!-- transition_queue_ai -->
<g id="node11" class="node">
<title>transition_queue_ai</title>
<polygon fill="lightBlue" stroke="lightBlue" points="405,-419 261,-419 261,-347 405,-347 405,-419"/>
<text text-anchor="start" x="314.5" y="-385.6" font-family="Arial" font-weight="bold" font-size="8.00">queue_ai</text>
<text text-anchor="start" x="305.5" y="-377.6" font-family="Arial" font-style="italic" font-size="8.00">Queue AI tasks</text>
<text text-anchor="middle" x="223.5" y="-421.6" font-family="Arial" font-size="8.00">Transition queue_ai: </text>
</g>
<!-- place_grouped&#45;&gt;transition_queue_ai -->
<!-- grouped -->
<g id="edge9" class="edge">
<title>place_grouped&#45;&gt;transition_queue_ai</title>
<path fill="none" stroke="#333333" d="M223.23,-897.74C288.4,-864.94 388,-799.78 388,-708 388,-708 388,-708 388,-598 388,-533.89 387.99,-516.24 369,-455 365.73,-444.47 361.01,-433.61 356.05,-423.64"/>
<polygon fill="#333333" stroke="#333333" points="357.58,-422.8 353.76,-419.13 354.46,-424.38 357.58,-422.8"/>
</g>
<!-- transition_fail -->
<g id="node14" class="node">
<title>transition_fail</title>
<polygon fill="lightBlue" stroke="lightBlue" points="196,-203 52,-203 52,-131 196,-131 196,-203"/>
<text text-anchor="start" x="117.5" y="-169.6" font-family="Arial" font-weight="bold" font-size="8.00">fail</text>
<text text-anchor="start" x="104" y="-161.6" font-family="Arial" font-style="italic" font-size="8.00">Mark failed</text>
<text text-anchor="middle" x="26" y="-205.6" font-family="Arial" font-size="8.00">Transition fail: </text>
</g>
<!-- place_grouped&#45;&gt;transition_fail -->
<!-- grouped -->
<g id="edge19" class="edge">
<title>place_grouped&#45;&gt;transition_fail</title>
<path fill="none" stroke="#333333" d="M142.15,-888.96C133.96,-877.41 125.38,-864.05 119,-851 89.75,-791.14 74,-774.63 74,-708 74,-708 74,-708 74,-382 74,-319.91 94.2,-250.29 108.92,-207.8"/>
<polygon fill="#333333" stroke="#333333" points="110.6,-208.3 110.6,-203.01 107.3,-207.15 110.6,-208.3"/>
</g>
<!-- place_split_ready -->
<g id="node3" class="node">
<title>place_split_ready</title>
<ellipse fill="lightgreen" stroke="lightBlue" cx="220" cy="-707" rx="117.72" ry="36"/>
<text text-anchor="start" x="198" y="-717.6" font-family="Arial" font-weight="bold" font-size="8.00">split_ready</text>
<text text-anchor="start" x="130" y="-709.6" font-family="Arial" font-style="italic" font-size="8.00">Split requested for compound payloads (e.g. PDF)</text>
<text text-anchor="start" x="186" y="-693.6" font-family="Arial" font-size="8.00">Then: </text>
<text text-anchor="start" x="210" y="-693.6" font-family="Arial" text-decoration="underline" font-size="8.00">split_assets</text>
<text text-anchor="start" x="251" y="-693.6" font-family="Arial" font-size="8.00"> </text>
<text text-anchor="middle" x="69.64" y="-745.6" font-family="Arial" font-size="8.00">Place split_ready: </text>
</g>
<!-- transition_split_assets -->
<g id="node10" class="node">
<title>transition_split_assets</title>
<polygon fill="lightBlue" stroke="lightBlue" points="307,-635 163,-635 163,-563 307,-563 307,-635"/>
<text text-anchor="start" x="211" y="-605.6" font-family="Arial" font-weight="bold" font-size="8.00">split_assets</text>
<text text-anchor="start" x="197" y="-597.6" font-family="Arial" font-style="italic" font-size="8.00">Split compound asset</text>
<text text-anchor="start" x="222.5" y="-589.6" font-family="Arial" font-size="8.00">async: </text>
<text text-anchor="middle" x="122" y="-637.6" font-family="Arial" font-size="8.00">Transition split_assets: </text>
</g>
<!-- place_split_ready&#45;&gt;transition_split_assets -->
<!-- split_ready -->
<g id="edge7" class="edge">
<title>place_split_ready&#45;&gt;transition_split_assets</title>
<path fill="none" stroke="#333333" d="M224.95,-671C226.33,-661.24 227.85,-650.56 229.27,-640.51"/>
<polygon fill="#333333" stroke="#333333" points="231.03,-640.52 230,-635.33 227.57,-640.03 231.03,-640.52"/>
</g>
<!-- place_split_ready&#45;&gt;transition_fail -->
<!-- split_ready -->
<g id="edge21" class="edge">
<title>place_split_ready&#45;&gt;transition_fail</title>
<path fill="none" stroke="#333333" d="M182.87,-672.49C172.33,-661.41 161.66,-648.46 154,-635 121.24,-577.43 112,-558.24 112,-492 112,-492 112,-492 112,-382 112,-321.39 116.86,-251.28 120.39,-208.29"/>
<polygon fill="#333333" stroke="#333333" points="122.15,-208.31 120.82,-203.18 118.66,-208.02 122.15,-208.31"/>
</g>
<!-- place_split_done -->
<g id="node4" class="node">
<title>place_split_done</title>
<ellipse fill="lightgreen" stroke="lightBlue" cx="250" cy="-491" rx="110.09" ry="36"/>
<text text-anchor="start" x="228.5" y="-501.6" font-family="Arial" font-weight="bold" font-size="8.00">split_done</text>
<text text-anchor="start" x="166.5" y="-493.6" font-family="Arial" font-style="italic" font-size="8.00">Child assets generated from compound source</text>
<text text-anchor="start" x="219.5" y="-477.6" font-family="Arial" font-size="8.00">Then: </text>
<text text-anchor="start" x="243.5" y="-477.6" font-family="Arial" text-decoration="underline" font-size="8.00">queue_ai</text>
<text text-anchor="start" x="277.5" y="-477.6" font-family="Arial" font-size="8.00"> </text>
<text text-anchor="middle" x="108.46" y="-529.6" font-family="Arial" font-size="8.00">Place split_done: </text>
</g>
<!-- place_split_done&#45;&gt;transition_queue_ai -->
<!-- split_done -->
<g id="edge11" class="edge">
<title>place_split_done&#45;&gt;transition_queue_ai</title>
<path fill="none" stroke="#333333" d="M276.72,-455.88C284.83,-445.51 293.82,-434.04 302.18,-423.36"/>
<polygon fill="#333333" stroke="#333333" points="303.77,-424.17 305.48,-419.15 301.02,-422.01 303.77,-424.17"/>
</g>
<!-- place_split_done&#45;&gt;transition_fail -->
<!-- split_done -->
<g id="edge23" class="edge">
<title>place_split_done&#45;&gt;transition_fail</title>
<path fill="none" stroke="#333333" d="M236.4,-455.23C212.83,-395.01 164.55,-271.62 139.64,-207.96"/>
<polygon fill="#333333" stroke="#333333" points="141.19,-207.13 137.74,-203.11 137.93,-208.4 141.19,-207.13"/>
</g>
<!-- place_ai_ready -->
<g id="node5" class="node">
<title>place_ai_ready</title>
<ellipse fill="lightgreen" stroke="lightBlue" cx="333" cy="-275" rx="81.36" ry="36"/>
<text text-anchor="start" x="316" y="-285.6" font-family="Arial" font-weight="bold" font-size="8.00">ai_ready</text>
<text text-anchor="start" x="273.5" y="-277.6" font-family="Arial" font-style="italic" font-size="8.00">Record&#45;level AI task queue active</text>
<text text-anchor="start" x="307" y="-261.6" font-family="Arial" font-size="8.00">Then: </text>
<text text-anchor="start" x="331" y="-261.6" font-family="Arial" text-decoration="underline" font-size="8.00">ai_task</text>
<text text-anchor="start" x="356" y="-261.6" font-family="Arial" font-size="8.00"> </text>
<text text-anchor="middle" x="222.82" y="-313.6" font-family="Arial" font-size="8.00">Place ai_ready: </text>
</g>
<!-- transition_ai_task -->
<g id="node12" class="node">
<title>transition_ai_task</title>
<polygon fill="lightBlue" stroke="lightBlue" points="558,-203 414,-203 414,-131 558,-131 558,-203"/>
<text text-anchor="start" x="472" y="-173.6" font-family="Arial" font-weight="bold" font-size="8.00">ai_task</text>
<text text-anchor="start" x="456.5" y="-165.6" font-family="Arial" font-style="italic" font-size="8.00">Run next AI task</text>
<text text-anchor="start" x="473.5" y="-157.6" font-family="Arial" font-size="8.00">async: </text>
<text text-anchor="middle" x="380.5" y="-205.6" font-family="Arial" font-size="8.00">Transition ai_task: </text>
</g>
<!-- place_ai_ready&#45;&gt;transition_ai_task -->
<!-- ai_ready -->
<g id="edge15" class="edge">
<title>place_ai_ready&#45;&gt;transition_ai_task</title>
<path fill="none" stroke="#333333" d="M371.46,-243.06C387.52,-231.51 406.55,-218.26 424.44,-206.14"/>
<polygon fill="#333333" stroke="#333333" points="425.8,-207.33 428.97,-203.08 423.85,-204.43 425.8,-207.33"/>
</g>
<!-- transition_ai_done -->
<g id="node13" class="node">
<title>transition_ai_done</title>
<polygon fill="lightBlue" stroke="lightBlue" points="396,-203 252,-203 252,-131 396,-131 396,-203"/>
<text text-anchor="start" x="308" y="-169.6" font-family="Arial" font-weight="bold" font-size="8.00">ai_done</text>
<text text-anchor="start" x="302.5" y="-161.6" font-family="Arial" font-style="italic" font-size="8.00">AI complete</text>
<text text-anchor="middle" x="217" y="-205.6" font-family="Arial" font-size="8.00">Transition ai_done: </text>
</g>
<!-- place_ai_ready&#45;&gt;transition_ai_done -->
<!-- ai_ready -->
<g id="edge17" class="edge">
<title>place_ai_ready&#45;&gt;transition_ai_done</title>
<path fill="none" stroke="#333333" d="M330.03,-239C329.2,-229.24 328.29,-218.56 327.44,-208.51"/>
<polygon fill="#333333" stroke="#333333" points="329.17,-208.16 327,-203.33 325.68,-208.46 329.17,-208.16"/>
</g>
<!-- place_ai_ready&#45;&gt;transition_fail -->
<!-- ai_ready -->
<g id="edge25" class="edge">
<title>place_ai_ready&#45;&gt;transition_fail</title>
<path fill="none" stroke="#333333" d="M280.53,-247.39C255.5,-234.69 225.12,-219.28 197.81,-205.43"/>
<polygon fill="#333333" stroke="#333333" points="198.35,-203.75 193.1,-203.04 196.77,-206.87 198.35,-203.75"/>
</g>
<!-- place_complete -->
<g id="node6" class="node">
<title>place_complete</title>
<ellipse fill="lightgreen" stroke="lightBlue" cx="305" cy="-59" rx="72" ry="36"/>
<text text-anchor="start" x="286.5" y="-61.6" font-family="Arial" font-weight="bold" font-size="8.00">complete</text>
<text text-anchor="start" x="254" y="-53.6" font-family="Arial" font-style="italic" font-size="8.00">Record processing complete</text>
<text text-anchor="middle" x="203.5" y="-97.6" font-family="Arial" font-size="8.00">Place complete: </text>
</g>
<!-- place_complete&#45;&gt;transition_queue_ai -->
<!-- complete -->
<g id="edge13" class="edge">
<title>place_complete&#45;&gt;transition_queue_ai</title>
<path fill="none" stroke="#333333" d="M269.74,-90.59C259.04,-102.06 248.63,-115.98 243,-131 214.9,-205.9 208.1,-239.01 243,-311 248.95,-323.28 258.18,-334.08 268.49,-343.3"/>
<polygon fill="#333333" stroke="#333333" points="267.41,-344.68 272.33,-346.63 269.7,-342.04 267.41,-344.68"/>
</g>
<!-- place_failed -->
<g id="node7" class="node">
<title>place_failed</title>
<ellipse fill="lightgreen" stroke="lightBlue" cx="124" cy="-59" rx="72" ry="36"/>
<text text-anchor="start" x="113" y="-61.6" font-family="Arial" font-weight="bold" font-size="8.00">failed</text>
<text text-anchor="start" x="75.5" y="-53.6" font-family="Arial" font-style="italic" font-size="8.00">Terminal or retriable failure</text>
<text text-anchor="middle" x="29" y="-97.6" font-family="Arial" font-size="8.00">Place failed: </text>
</g>
<!-- place_failed&#45;&gt;transition_group_assets -->
<!-- failed -->
<g id="edge3" class="edge">
<title>place_failed&#45;&gt;transition_group_assets</title>
<path fill="none" stroke="#333333" d="M80.68,-88.25C66.4,-99.79 51.92,-114.35 43,-131 12.74,-187.52 24,-209.89 24,-274 24,-816 24,-816 24,-816 24,-884.58 41.43,-903.7 82,-959 90.57,-970.68 101.47,-981.59 112.62,-991.2"/>
<polygon fill="#333333" stroke="#333333" points="111.78,-992.78 116.73,-994.67 114.04,-990.11 111.78,-992.78"/>
</g>
<!-- transition_group_assets&#45;&gt;place_grouped -->
<g id="edge2" class="edge">
<title>transition_group_assets&#45;&gt;place_grouped</title>
<path fill="none" stroke="#333333" d="M161.61,-995C161.2,-985.14 161.14,-974.34 161.43,-964.2"/>
<polygon fill="#333333" stroke="#333333" points="163.19,-964.02 161.61,-958.97 159.69,-963.9 163.19,-964.02"/>
</g>
<!-- transition_group_assets&#45;&gt;place_grouped -->
<g id="edge4" class="edge">
<title>transition_group_assets&#45;&gt;place_grouped</title>
<path fill="none" stroke="#333333" d="M174.39,-995C174.8,-985.14 174.86,-974.34 174.57,-964.2"/>
<polygon fill="#333333" stroke="#333333" points="176.31,-963.9 174.39,-958.97 172.81,-964.02 176.31,-963.9"/>
</g>
<!-- transition_queue_split&#45;&gt;place_split_ready -->
<g id="edge6" class="edge">
<title>transition_queue_split&#45;&gt;place_split_ready</title>
<path fill="none" stroke="#333333" d="M206.6,-779C208.48,-769.05 210.54,-758.14 212.47,-747.92"/>
<polygon fill="#333333" stroke="#333333" points="214.2,-748.2 213.4,-742.97 210.76,-747.55 214.2,-748.2"/>
</g>
<!-- transition_split_assets&#45;&gt;place_split_done -->
<g id="edge8" class="edge">
<title>transition_split_assets&#45;&gt;place_split_done</title>
<path fill="none" stroke="#333333" d="M239.95,-563C241.36,-553.05 242.91,-542.14 244.35,-531.92"/>
<polygon fill="#333333" stroke="#333333" points="246.08,-532.16 245.05,-526.97 242.62,-531.67 246.08,-532.16"/>
</g>
<!-- transition_queue_ai&#45;&gt;place_ai_ready -->
<g id="edge10" class="edge">
<title>transition_queue_ai&#45;&gt;place_ai_ready</title>
<path fill="none" stroke="#333333" d="M320.22,-347C319.39,-336.94 319.28,-325.91 319.89,-315.6"/>
<polygon fill="#333333" stroke="#333333" points="321.64,-315.72 320.25,-310.6 318.15,-315.47 321.64,-315.72"/>
</g>
<!-- transition_queue_ai&#45;&gt;place_ai_ready -->
<g id="edge12" class="edge">
<title>transition_queue_ai&#45;&gt;place_ai_ready</title>
<path fill="none" stroke="#333333" d="M333,-347C333,-337.24 333,-326.56 333,-316.51"/>
<polygon fill="#333333" stroke="#333333" points="334.75,-316.33 333,-311.33 331.25,-316.33 334.75,-316.33"/>
</g>
<!-- transition_queue_ai&#45;&gt;place_ai_ready -->
<g id="edge14" class="edge">
<title>transition_queue_ai&#45;&gt;place_ai_ready</title>
<path fill="none" stroke="#333333" d="M345.78,-347C346.61,-336.94 346.72,-325.91 346.11,-315.6"/>
<polygon fill="#333333" stroke="#333333" points="347.85,-315.47 345.75,-310.6 344.36,-315.72 347.85,-315.47"/>
</g>
<!-- transition_ai_task&#45;&gt;place_ai_ready -->
<g id="edge16" class="edge">
<title>transition_ai_task&#45;&gt;place_ai_ready</title>
<path fill="none" stroke="#333333" d="M441.71,-203.12C423.73,-215.94 402.87,-230.34 384.25,-242.8"/>
<polygon fill="#333333" stroke="#333333" points="383.25,-241.36 380.06,-245.59 385.19,-244.28 383.25,-241.36"/>
</g>
<!-- transition_ai_done&#45;&gt;place_complete -->
<g id="edge18" class="edge">
<title>transition_ai_done&#45;&gt;place_complete</title>
<path fill="none" stroke="#333333" d="M317.73,-131C315.94,-121.05 313.99,-110.14 312.16,-99.92"/>
<polygon fill="#333333" stroke="#333333" points="313.87,-99.58 311.27,-94.97 310.43,-100.2 313.87,-99.58"/>
</g>
<!-- transition_fail&#45;&gt;place_failed -->
<g id="edge20" class="edge">
<title>transition_fail&#45;&gt;place_failed</title>
<path fill="none" stroke="#333333" d="M104.83,-131C103.55,-120.74 103.41,-109.45 104.39,-98.96"/>
<polygon fill="#333333" stroke="#333333" points="106.15,-99.05 104.97,-93.88 102.67,-98.66 106.15,-99.05"/>
</g>
<!-- transition_fail&#45;&gt;place_failed -->
<g id="edge22" class="edge">
<title>transition_fail&#45;&gt;place_failed</title>
<path fill="none" stroke="#333333" d="M117.61,-131C117.2,-121.14 117.14,-110.34 117.43,-100.2"/>
<polygon fill="#333333" stroke="#333333" points="119.19,-100.02 117.61,-94.97 115.69,-99.9 119.19,-100.02"/>
</g>
<!-- transition_fail&#45;&gt;place_failed -->
<g id="edge24" class="edge">
<title>transition_fail&#45;&gt;place_failed</title>
<path fill="none" stroke="#333333" d="M130.39,-131C130.8,-121.14 130.86,-110.34 130.57,-100.2"/>
<polygon fill="#333333" stroke="#333333" points="132.31,-99.9 130.39,-94.97 128.81,-100.02 132.31,-99.9"/>
</g>
<!-- transition_fail&#45;&gt;place_failed -->
<g id="edge26" class="edge">
<title>transition_fail&#45;&gt;place_failed</title>
<path fill="none" stroke="#333333" d="M143.17,-131C144.45,-120.74 144.59,-109.45 143.61,-98.96"/>
<polygon fill="#333333" stroke="#333333" points="145.33,-98.66 143.03,-93.88 141.85,-99.05 145.33,-98.66"/>
</g>
</g>
</svg>
