<?xml version="1.0" encoding="UTF-8" standalone="no"?>
<!DOCTYPE svg PUBLIC "-//W3C//DTD SVG 1.1//EN"
 "http://www.w3.org/Graphics/SVG/1.1/DTD/svg11.dtd">
<!-- Generated by graphviz version 2.43.0 (0)
 -->
<!-- Title: workflow Pages: 1 -->
<svg width="215pt" height="328pt"
 viewBox="0.00 0.00 215.00 328.00" xmlns="http://www.w3.org/2000/svg" xmlns:xlink="http://www.w3.org/1999/xlink">
<g id="graph0" class="graph" transform="scale(1 1) rotate(0) translate(4 324)">
<title>workflow</title>
<polygon fill="white" stroke="transparent" points="-4,4 -4,-324 211,-324 211,4 -4,4"/>
<text text-anchor="start" x="39" y="-8.8" font-family="Times,serif" font-weight="bold" font-size="14.00">ThumbWorkflow</text>
<!-- place_new -->
<g id="node1" class="node">
<title>place_new</title>
<ellipse fill="lightgreen" stroke="lightBlue" cx="135" cy="-275" rx="72" ry="36"/>
<text text-anchor="start" x="127" y="-274.1" font-family="Arial" font-weight="bold" font-size="8.00">new</text>
<text text-anchor="middle" x="42" y="-313.6" font-family="Arial" font-size="8.00">Place new: </text>
</g>
<!-- transition_resize -->
<g id="node3" class="node">
<title>transition_resize</title>
<polygon fill="lightBlue" stroke="lightBlue" points="207,-203 63,-203 63,-131 207,-131 207,-203"/>
<text text-anchor="start" x="123.5" y="-177.6" font-family="Arial" font-weight="bold" font-size="8.00">resize</text>
<text text-anchor="start" x="116.5" y="-161.6" font-family="Arial" font-size="8.00">Via: resize</text>
<text text-anchor="start" x="122.5" y="-153.6" font-family="Arial" font-size="8.00">async: </text>
<text text-anchor="middle" x="31.5" y="-205.6" font-family="Arial" font-size="8.00">Transition resize: </text>
</g>
<!-- place_new&#45;&gt;transition_resize -->
<!-- new -->
<g id="edge1" class="edge">
<title>place_new&#45;&gt;transition_resize</title>
<path fill="none" stroke="#333333" d="M135,-239C135,-229.24 135,-218.56 135,-208.51"/>
<polygon fill="#333333" stroke="#333333" points="136.75,-208.33 135,-203.33 133.25,-208.33 136.75,-208.33"/>
</g>
<!-- place_done -->
<g id="node2" class="node">
<title>place_done</title>
<ellipse fill="lightgreen" stroke="lightBlue" cx="135" cy="-59" rx="72" ry="36"/>
<text text-anchor="start" x="124.5" y="-58.1" font-family="Arial" font-weight="bold" font-size="8.00">done</text>
<text text-anchor="middle" x="40.5" y="-97.6" font-family="Arial" font-size="8.00">Place done: </text>
</g>
<!-- place_done&#45;&gt;transition_resize -->
<!-- done -->
<g id="edge3" class="edge">
<title>place_done&#45;&gt;transition_resize</title>
<path fill="none" stroke="#333333" d="M141.39,-94.97C141.8,-104.82 141.86,-115.62 141.57,-125.76"/>
<polygon fill="#333333" stroke="#333333" points="139.82,-125.94 141.39,-131 143.31,-126.06 139.82,-125.94"/>
</g>
<!-- transition_resize&#45;&gt;place_done -->
<g id="edge2" class="edge">
<title>transition_resize&#45;&gt;place_done</title>
<path fill="none" stroke="#333333" d="M135,-131C135,-121.24 135,-110.56 135,-100.51"/>
<polygon fill="#333333" stroke="#333333" points="136.75,-100.33 135,-95.33 133.25,-100.33 136.75,-100.33"/>
</g>
<!-- transition_resize&#45;&gt;place_done -->
<g id="edge4" class="edge">
<title>transition_resize&#45;&gt;place_done</title>
<path fill="none" stroke="#333333" d="M128.61,-131C128.2,-121.14 128.14,-110.34 128.43,-100.2"/>
<polygon fill="#333333" stroke="#333333" points="130.19,-100.02 128.61,-94.97 126.69,-99.9 130.19,-100.02"/>
</g>
</g>
</svg>
