<?xml version="1.0" encoding="UTF-8" standalone="no"?>
<!DOCTYPE svg PUBLIC "-//W3C//DTD SVG 1.1//EN"
 "http://www.w3.org/Graphics/SVG/1.1/DTD/svg11.dtd">
<!-- Generated by graphviz version 2.43.0 (0)
 -->
<!-- Title: workflow Pages: 1 -->
<svg width="377pt" height="328pt"
 viewBox="0.00 0.00 377.00 328.00" xmlns="http://www.w3.org/2000/svg" xmlns:xlink="http://www.w3.org/1999/xlink">
<g id="graph0" class="graph" transform="scale(1 1) rotate(0) translate(4 324)">
<title>workflow</title>
<polygon fill="white" stroke="transparent" points="-4,4 -4,-324 373,-324 373,4 -4,4"/>
<text text-anchor="start" x="119.5" y="-8.8" font-family="Times,serif" font-weight="bold" font-size="14.00">VariantWorkflow</text>
<!-- place_new -->
<g id="node1" class="node">
<title>place_new</title>
<ellipse fill="lightgreen" stroke="lightBlue" cx="135" cy="-275" rx="72" ry="36"/>
<text text-anchor="start" x="127" y="-281.6" font-family="Arial" font-weight="bold" font-size="8.00">new</text>
<text text-anchor="start" x="110.5" y="-265.6" font-family="Arial" font-size="8.00">Then: </text>
<text text-anchor="start" x="134.5" y="-265.6" font-family="Arial" text-decoration="underline" font-size="8.00">resize</text>
<text text-anchor="start" x="156.5" y="-265.6" font-family="Arial" font-size="8.00"> </text>
<text text-anchor="middle" x="42" y="-313.6" font-family="Arial" font-size="8.00">Place new: </text>
</g>
<!-- transition_resize -->
<g id="node4" class="node">
<title>transition_resize</title>
<polygon fill="lightBlue" stroke="lightBlue" points="207,-203 63,-203 63,-131 207,-131 207,-203"/>
<text text-anchor="start" x="123.5" y="-169.6" font-family="Arial" font-weight="bold" font-size="8.00">resize</text>
<text text-anchor="start" x="122.5" y="-161.6" font-family="Arial" font-size="8.00">async: </text>
<text text-anchor="middle" x="31.5" y="-205.6" font-family="Arial" font-size="8.00">Transition resize: </text>
</g>
<!-- place_new&#45;&gt;transition_resize -->
<!-- new -->
<g id="edge1" class="edge">
<title>place_new&#45;&gt;transition_resize</title>
<path fill="none" stroke="#333333" d="M135,-239C135,-229.24 135,-218.56 135,-208.51"/>
<polygon fill="#333333" stroke="#333333" points="136.75,-208.33 135,-203.33 133.25,-208.33 136.75,-208.33"/>
</g>
<!-- place_done -->
<g id="node2" class="node">
<title>place_done</title>
<ellipse fill="lightgreen" stroke="lightBlue" cx="216" cy="-59" rx="72" ry="36"/>
<text text-anchor="start" x="205.5" y="-58.1" font-family="Arial" font-weight="bold" font-size="8.00">done</text>
<text text-anchor="middle" x="121.5" y="-97.6" font-family="Arial" font-size="8.00">Place done: </text>
</g>
<!-- place_error -->
<g id="node3" class="node">
<title>place_error</title>
<ellipse fill="lightgreen" stroke="lightBlue" cx="297" cy="-275" rx="72" ry="36"/>
<text text-anchor="start" x="287.5" y="-274.1" font-family="Arial" font-weight="bold" font-size="8.00">error</text>
<text text-anchor="middle" x="202.5" y="-313.6" font-family="Arial" font-size="8.00">Place error: </text>
</g>
<!-- transition_retry -->
<g id="node5" class="node">
<title>transition_retry</title>
<polygon fill="lightBlue" stroke="lightBlue" points="369,-203 225,-203 225,-131 369,-131 369,-203"/>
<text text-anchor="start" x="287.5" y="-169.6" font-family="Arial" font-weight="bold" font-size="8.00">retry</text>
<text text-anchor="start" x="284.5" y="-161.6" font-family="Arial" font-size="8.00">async: </text>
<text text-anchor="middle" x="196" y="-205.6" font-family="Arial" font-size="8.00">Transition retry: </text>
</g>
<!-- place_error&#45;&gt;transition_retry -->
<!-- error -->
<g id="edge3" class="edge">
<title>place_error&#45;&gt;transition_retry</title>
<path fill="none" stroke="#333333" d="M297,-239C297,-229.24 297,-218.56 297,-208.51"/>
<polygon fill="#333333" stroke="#333333" points="298.75,-208.33 297,-203.33 295.25,-208.33 298.75,-208.33"/>
</g>
<!-- transition_resize&#45;&gt;place_done -->
<g id="edge2" class="edge">
<title>transition_resize&#45;&gt;place_done</title>
<path fill="none" stroke="#333333" d="M161.75,-131C170.12,-120.04 179.38,-107.92 187.85,-96.84"/>
<polygon fill="#333333" stroke="#333333" points="189.28,-97.85 190.93,-92.81 186.5,-95.72 189.28,-97.85"/>
</g>
<!-- transition_retry&#45;&gt;place_done -->
<g id="edge4" class="edge">
<title>transition_retry&#45;&gt;place_done</title>
<path fill="none" stroke="#333333" d="M270.25,-131C261.88,-120.04 252.62,-107.92 244.15,-96.84"/>
<polygon fill="#333333" stroke="#333333" points="245.5,-95.72 241.07,-92.81 242.72,-97.85 245.5,-95.72"/>
</g>
</g>
</svg>
