<?xml version="1.0" encoding="UTF-8" standalone="no"?>
<!DOCTYPE svg PUBLIC "-//W3C//DTD SVG 1.1//EN"
 "http://www.w3.org/Graphics/SVG/1.1/DTD/svg11.dtd">
<!-- Generated by graphviz version 2.43.0 (0)
 -->
<!-- Title: workflow Pages: 1 -->
<svg width="172pt" height="211pt"
 viewBox="0.00 0.00 171.87 211.00" xmlns="http://www.w3.org/2000/svg" xmlns:xlink="http://www.w3.org/1999/xlink">
<g id="graph0" class="graph" transform="scale(1 1) rotate(0) translate(4 207)">
<title>workflow</title>
<polygon fill="white" stroke="transparent" points="-4,4 -4,-207 167.87,-207 167.87,4 -4,4"/>
<text text-anchor="start" x="41.43" y="-8.8" font-family="Times,serif" font-weight="bold" font-size="14.00">FileWorkflow</text>
<!-- place_file -->
<g id="node1" class="node">
<title>place_file</title>
<ellipse fill="lightgreen" stroke="#333333" cx="36.87" cy="-185" rx="36" ry="18"/>
<text text-anchor="start" x="30.37" y="-184.1" font-family="Arial" font-weight="bold" font-size="8.00">file</text>
</g>
<!-- transition_1 -->
<g id="node6" class="node">
<title>transition_1</title>
<polygon fill="none" stroke="#333333" points="72.87,-131 0.87,-131 0.87,-95 72.87,-95 72.87,-131"/>
<text text-anchor="start" x="16.87" y="-112.1" font-family="Arial" font-weight="bold" font-size="8.00">download</text>
</g>
<!-- place_file&#45;&gt;transition_1 -->
<!-- file -->
<g id="edge3" class="edge">
<title>place_file&#45;&gt;transition_1</title>
<path fill="none" stroke="#333333" d="M36.87,-166.7C36.87,-157.46 36.87,-145.98 36.87,-136.11"/>
<polygon fill="#333333" stroke="#333333" points="38.62,-136.1 36.87,-131.1 35.12,-136.1 38.62,-136.1"/>
</g>
<!-- place_listing -->
<g id="node2" class="node">
<title>place_listing</title>
<ellipse fill="lightgreen" stroke="#333333" cx="127.87" cy="-41" rx="36" ry="18"/>
<text text-anchor="start" x="115.37" y="-40.1" font-family="Arial" font-weight="bold" font-size="8.00">listing</text>
</g>
<!-- place_downloaded -->
<g id="node3" class="node">
<title>place_downloaded</title>
<ellipse fill="lightgreen" stroke="#333333" cx="36.87" cy="-41" rx="36.74" ry="18"/>
<text text-anchor="start" x="12.37" y="-40.1" font-family="Arial" font-weight="bold" font-size="8.00">downloaded</text>
</g>
<!-- place_dir -->
<g id="node4" class="node">
<title>place_dir</title>
<ellipse fill="lightgreen" stroke="#333333" cx="127.87" cy="-185" rx="36" ry="18"/>
<text text-anchor="start" x="122.37" y="-184.1" font-family="Arial" font-weight="bold" font-size="8.00">dir</text>
</g>
<!-- transition_0 -->
<g id="node5" class="node">
<title>transition_0</title>
<polygon fill="none" stroke="#333333" points="163.87,-131 91.87,-131 91.87,-95 163.87,-95 163.87,-131"/>
<text text-anchor="start" x="121.37" y="-112.1" font-family="Arial" font-weight="bold" font-size="8.00">list</text>
</g>
<!-- place_dir&#45;&gt;transition_0 -->
<!-- dir -->
<g id="edge1" class="edge">
<title>place_dir&#45;&gt;transition_0</title>
<path fill="none" stroke="#333333" d="M127.87,-166.7C127.87,-157.46 127.87,-145.98 127.87,-136.11"/>
<polygon fill="#333333" stroke="#333333" points="129.62,-136.1 127.87,-131.1 126.12,-136.1 129.62,-136.1"/>
</g>
<!-- transition_0&#45;&gt;place_listing -->
<g id="edge2" class="edge">
<title>transition_0&#45;&gt;place_listing</title>
<path fill="none" stroke="#333333" d="M127.87,-94.7C127.87,-85.46 127.87,-73.98 127.87,-64.11"/>
<polygon fill="#333333" stroke="#333333" points="129.62,-64.1 127.87,-59.1 126.12,-64.1 129.62,-64.1"/>
</g>
<!-- transition_1&#45;&gt;place_downloaded -->
<g id="edge4" class="edge">
<title>transition_1&#45;&gt;place_downloaded</title>
<path fill="none" stroke="#333333" d="M36.87,-94.7C36.87,-85.46 36.87,-73.98 36.87,-64.11"/>
<polygon fill="#333333" stroke="#333333" points="38.62,-64.1 36.87,-59.1 35.12,-64.1 38.62,-64.1"/>
</g>
</g>
</svg>
