<?xml version="1.0" encoding="UTF-8" standalone="no"?>
<!DOCTYPE svg PUBLIC "-//W3C//DTD SVG 1.1//EN"
 "http://www.w3.org/Graphics/SVG/1.1/DTD/svg11.dtd">
<!-- Generated by graphviz version 2.43.0 (0)
 -->
<!-- Title: workflow Pages: 1 -->
<svg width="501pt" height="427pt"
 viewBox="0.00 0.00 500.50 427.00" xmlns="http://www.w3.org/2000/svg" xmlns:xlink="http://www.w3.org/1999/xlink">
<g id="graph0" class="graph" transform="scale(1 1) rotate(0) translate(4 423)">
<title>workflow</title>
<polygon fill="white" stroke="transparent" points="-4,4 -4,-423 496.5,-423 496.5,4 -4,4"/>
<text text-anchor="start" x="197.75" y="-8.8" font-family="Times,serif" font-weight="bold" font-size="14.00">MediaWorkflow</text>
<!-- place_new -->
<g id="node1" class="node">
<title>place_new</title>
<ellipse fill="lightgreen" stroke="#333333" cx="197.5" cy="-401" rx="36" ry="18"/>
<text text-anchor="start" x="189.5" y="-400.1" font-family="Arial" font-weight="bold" font-size="8.00">new</text>
</g>
<!-- transition_0 -->
<g id="node5" class="node">
<title>transition_0</title>
<polygon fill="none" stroke="#333333" points="243,-347 152,-347 152,-311 243,-311 243,-347"/>
<text text-anchor="start" x="177.5" y="-335.6" font-family="Arial" font-weight="bold" font-size="8.00">download</text>
<text text-anchor="start" x="160" y="-327.6" font-family="Arial" font-style="italic" font-size="8.00">Download originalUrl</text>
<text text-anchor="start" x="185" y="-319.6" font-family="Arial" font-style="italic" font-size="8.00">to /tmp</text>
</g>
<!-- place_new&#45;&gt;transition_0 -->
<!-- new -->
<g id="edge1" class="edge">
<title>place_new&#45;&gt;transition_0</title>
<path fill="none" stroke="#333333" d="M197.5,-382.7C197.5,-373.46 197.5,-361.98 197.5,-352.11"/>
<polygon fill="#333333" stroke="#333333" points="199.25,-352.1 197.5,-347.1 195.75,-352.1 199.25,-352.1"/>
</g>
<!-- place_downloaded -->
<g id="node2" class="node">
<title>place_downloaded</title>
<ellipse fill="lightgreen" stroke="#333333" cx="197.5" cy="-257" rx="36.74" ry="18"/>
<text text-anchor="start" x="173" y="-256.1" font-family="Arial" font-weight="bold" font-size="8.00">downloaded</text>
</g>
<!-- transition_1 -->
<g id="node6" class="node">
<title>transition_1</title>
<polygon fill="none" stroke="#333333" points="91,-203 0,-203 0,-167 91,-167 91,-203"/>
<text text-anchor="start" x="25.5" y="-191.6" font-family="Arial" font-weight="bold" font-size="8.00">download</text>
<text text-anchor="start" x="8" y="-183.6" font-family="Arial" font-style="italic" font-size="8.00">Download originalUrl</text>
<text text-anchor="start" x="33" y="-175.6" font-family="Arial" font-style="italic" font-size="8.00">to /tmp</text>
</g>
<!-- place_downloaded&#45;&gt;transition_1 -->
<!-- downloaded -->
<g id="edge3" class="edge">
<title>place_downloaded&#45;&gt;transition_1</title>
<path fill="none" stroke="#333333" d="M169.05,-245.22C144.14,-234.59 108.04,-218.13 81.22,-205.26"/>
<polygon fill="#333333" stroke="#333333" points="81.93,-203.66 76.67,-203.07 80.41,-206.81 81.93,-203.66"/>
</g>
<!-- transition_3 -->
<g id="node8" class="node">
<title>transition_3</title>
<polygon fill="none" stroke="#333333" points="191.5,-203 109.5,-203 109.5,-167 191.5,-167 191.5,-203"/>
<text text-anchor="start" x="117.5" y="-184.1" font-family="Arial" font-weight="bold" font-size="8.00">download_failed</text>
</g>
<!-- place_downloaded&#45;&gt;transition_3 -->
<!-- downloaded -->
<g id="edge7" class="edge">
<title>place_downloaded&#45;&gt;transition_3</title>
<path fill="none" stroke="#333333" d="M186.6,-239.76C180.15,-230.15 171.89,-217.86 164.9,-207.45"/>
<polygon fill="#333333" stroke="#333333" points="166.24,-206.3 162,-203.12 163.33,-208.25 166.24,-206.3"/>
</g>
<!-- transition_4 -->
<g id="node9" class="node">
<title>transition_4</title>
<polygon fill="none" stroke="#333333" points="281.5,-203 209.5,-203 209.5,-167 281.5,-167 281.5,-203"/>
<text text-anchor="start" x="224" y="-184.1" font-family="Arial" font-weight="bold" font-size="8.00">invalid_file</text>
</g>
<!-- place_downloaded&#45;&gt;transition_4 -->
<!-- downloaded -->
<g id="edge9" class="edge">
<title>place_downloaded&#45;&gt;transition_4</title>
<path fill="none" stroke="#333333" d="M208.63,-239.76C215.22,-230.15 223.65,-217.86 230.79,-207.45"/>
<polygon fill="#333333" stroke="#333333" points="232.37,-208.24 233.76,-203.12 229.49,-206.26 232.37,-208.24"/>
</g>
<!-- transition_5 -->
<g id="node10" class="node">
<title>transition_5</title>
<polygon fill="none" stroke="#333333" points="409.5,-203 337.5,-203 337.5,-167 409.5,-167 409.5,-203"/>
<text text-anchor="start" x="362" y="-184.1" font-family="Arial" font-weight="bold" font-size="8.00">resize</text>
</g>
<!-- place_downloaded&#45;&gt;transition_5 -->
<!-- downloaded -->
<g id="edge11" class="edge">
<title>place_downloaded&#45;&gt;transition_5</title>
<path fill="none" stroke="#333333" d="M225.39,-244.91C254.21,-233.44 299.52,-215.42 332.44,-202.33"/>
<polygon fill="#333333" stroke="#333333" points="333.2,-203.91 337.2,-200.44 331.91,-200.66 333.2,-203.91"/>
</g>
<!-- place_resized -->
<g id="node3" class="node">
<title>place_resized</title>
<ellipse fill="lightgreen" stroke="#333333" cx="373.5" cy="-113" rx="36" ry="18"/>
<text text-anchor="start" x="359.5" y="-112.1" font-family="Arial" font-weight="bold" font-size="8.00">resized</text>
</g>
<!-- transition_6 -->
<g id="node11" class="node">
<title>transition_6</title>
<polygon fill="none" stroke="#333333" points="402.5,-59 330.5,-59 330.5,-23 402.5,-23 402.5,-59"/>
<text text-anchor="start" x="355" y="-40.1" font-family="Arial" font-weight="bold" font-size="8.00">resize</text>
</g>
<!-- place_resized&#45;&gt;transition_6 -->
<!-- resized -->
<g id="edge13" class="edge">
<title>place_resized&#45;&gt;transition_6</title>
<path fill="none" stroke="#333333" d="M365.93,-95.05C364.02,-85.82 362.72,-74.28 362.39,-64.32"/>
<polygon fill="#333333" stroke="#333333" points="364.14,-64.25 362.31,-59.28 360.64,-64.3 364.14,-64.25"/>
</g>
<!-- transition_7 -->
<g id="node12" class="node">
<title>transition_7</title>
<polygon fill="none" stroke="#333333" points="492.5,-59 420.5,-59 420.5,-23 492.5,-23 492.5,-59"/>
<text text-anchor="start" x="442.5" y="-40.1" font-family="Arial" font-weight="bold" font-size="8.00">refresh</text>
</g>
<!-- place_resized&#45;&gt;transition_7 -->
<!-- resized -->
<g id="edge15" class="edge">
<title>place_resized&#45;&gt;transition_7</title>
<path fill="none" stroke="#333333" d="M386.57,-96.12C397.29,-86.1 412.6,-73.07 426.23,-62.31"/>
<polygon fill="#333333" stroke="#333333" points="427.54,-63.5 430.4,-59.04 425.39,-60.75 427.54,-63.5"/>
</g>
<!-- place_failed -->
<g id="node4" class="node">
<title>place_failed</title>
<ellipse fill="lightgreen" stroke="#333333" cx="245.5" cy="-113" rx="36" ry="18"/>
<text text-anchor="start" x="234.5" y="-112.1" font-family="Arial" font-weight="bold" font-size="8.00">failed</text>
</g>
<!-- transition_2 -->
<g id="node7" class="node">
<title>transition_2</title>
<polygon fill="none" stroke="#333333" points="305,-59 214,-59 214,-23 305,-23 305,-59"/>
<text text-anchor="start" x="239.5" y="-47.6" font-family="Arial" font-weight="bold" font-size="8.00">download</text>
<text text-anchor="start" x="222" y="-39.6" font-family="Arial" font-style="italic" font-size="8.00">Download originalUrl</text>
<text text-anchor="start" x="247" y="-31.6" font-family="Arial" font-style="italic" font-size="8.00">to /tmp</text>
</g>
<!-- place_failed&#45;&gt;transition_2 -->
<!-- failed -->
<g id="edge5" class="edge">
<title>place_failed&#45;&gt;transition_2</title>
<path fill="none" stroke="#333333" d="M248.89,-95.05C250.74,-85.82 253.04,-74.28 255.04,-64.32"/>
<polygon fill="#333333" stroke="#333333" points="256.78,-64.52 256.04,-59.28 253.35,-63.83 256.78,-64.52"/>
</g>
<!-- transition_0&#45;&gt;place_downloaded -->
<g id="edge2" class="edge">
<title>transition_0&#45;&gt;place_downloaded</title>
<path fill="none" stroke="#333333" d="M197.5,-310.7C197.5,-301.46 197.5,-289.98 197.5,-280.11"/>
<polygon fill="#333333" stroke="#333333" points="199.25,-280.1 197.5,-275.1 195.75,-280.1 199.25,-280.1"/>
</g>
<!-- transition_1&#45;&gt;place_downloaded -->
<g id="edge4" class="edge">
<title>transition_1&#45;&gt;place_downloaded</title>
<path fill="none" stroke="#333333" d="M88.48,-203.08C114.51,-214.52 146.87,-229.44 169.62,-240.53"/>
<polygon fill="#333333" stroke="#333333" points="169.06,-242.2 174.32,-242.83 170.6,-239.06 169.06,-242.2"/>
</g>
<!-- transition_2&#45;&gt;place_downloaded -->
<g id="edge6" class="edge">
<title>transition_2&#45;&gt;place_downloaded</title>
<path fill="none" stroke="#333333" d="M272.65,-59.09C279.42,-68.99 286.99,-82.04 290.5,-95 303.05,-141.33 314.62,-161.5 290.5,-203 278.31,-223.97 254.37,-237.34 233.84,-245.4"/>
<polygon fill="#333333" stroke="#333333" points="233.03,-243.83 228.97,-247.24 234.27,-247.11 233.03,-243.83"/>
</g>
<!-- transition_3&#45;&gt;place_failed -->
<g id="edge8" class="edge">
<title>transition_3&#45;&gt;place_failed</title>
<path fill="none" stroke="#333333" d="M173.98,-166.7C188.52,-155.98 207.14,-142.27 221.73,-131.51"/>
<polygon fill="#333333" stroke="#333333" points="223.13,-132.65 226.12,-128.28 221.06,-129.84 223.13,-132.65"/>
</g>
<!-- transition_4&#45;&gt;place_failed -->
<g id="edge10" class="edge">
<title>transition_4&#45;&gt;place_failed</title>
<path fill="none" stroke="#333333" d="M245.5,-166.7C245.5,-157.46 245.5,-145.98 245.5,-136.11"/>
<polygon fill="#333333" stroke="#333333" points="247.25,-136.1 245.5,-131.1 243.75,-136.1 247.25,-136.1"/>
</g>
<!-- transition_5&#45;&gt;place_resized -->
<g id="edge12" class="edge">
<title>transition_5&#45;&gt;place_resized</title>
<path fill="none" stroke="#333333" d="M373.5,-166.7C373.5,-157.46 373.5,-145.98 373.5,-136.11"/>
<polygon fill="#333333" stroke="#333333" points="375.25,-136.1 373.5,-131.1 371.75,-136.1 375.25,-136.1"/>
</g>
<!-- transition_6&#45;&gt;place_resized -->
<g id="edge14" class="edge">
<title>transition_6&#45;&gt;place_resized</title>
<path fill="none" stroke="#333333" d="M374.14,-59.28C376.03,-68.56 377.32,-80.12 377.62,-90.04"/>
<polygon fill="#333333" stroke="#333333" points="375.87,-90.08 377.68,-95.05 379.37,-90.03 375.87,-90.08"/>
</g>
<!-- transition_7&#45;&gt;place_resized -->
<g id="edge16" class="edge">
<title>transition_7&#45;&gt;place_resized</title>
<path fill="none" stroke="#333333" d="M442.03,-59.18C430.16,-70.16 413.34,-84.33 399.24,-95.23"/>
<polygon fill="#333333" stroke="#333333" points="397.87,-94.08 394.96,-98.5 400,-96.86 397.87,-94.08"/>
</g>
</g>
</svg>
