<?xml version="1.0" encoding="UTF-8" standalone="no"?>
<!DOCTYPE svg PUBLIC "-//W3C//DTD SVG 1.1//EN"
 "http://www.w3.org/Graphics/SVG/1.1/DTD/svg11.dtd">
<!-- Generated by graphviz version 2.43.0 (0)
 -->
<!-- Title: workflow Pages: 1 -->
<svg width="127pt" height="283pt"
 viewBox="0.00 0.00 127.00 283.00" xmlns="http://www.w3.org/2000/svg" xmlns:xlink="http://www.w3.org/1999/xlink">
<g id="graph0" class="graph" transform="scale(1 1) rotate(0) translate(4 279)">
<title>workflow</title>
<polygon fill="white" stroke="transparent" points="-4,4 -4,-279 123,-279 123,4 -4,4"/>
<text text-anchor="start" x="8" y="-8.8" font-family="Times,serif" font-weight="bold" font-size="14.00">ThumbWorkflow</text>
<!-- place_new -->
<g id="node1" class="node">
<title>place_new</title>
<ellipse fill="lightgreen" stroke="#333333" cx="59.5" cy="-257" rx="36" ry="18"/>
<text text-anchor="start" x="51.5" y="-256.1" font-family="Arial" font-weight="bold" font-size="8.00">new</text>
</g>
<!-- transition_0 -->
<g id="node3" class="node">
<title>transition_0</title>
<polygon fill="none" stroke="#333333" points="95.5,-203 23.5,-203 23.5,-167 95.5,-167 95.5,-203"/>
<text text-anchor="start" x="48" y="-184.1" font-family="Arial" font-weight="bold" font-size="8.00">resize</text>
</g>
<!-- place_new&#45;&gt;transition_0 -->
<!-- new -->
<g id="edge1" class="edge">
<title>place_new&#45;&gt;transition_0</title>
<path fill="none" stroke="#333333" d="M59.5,-238.7C59.5,-229.46 59.5,-217.98 59.5,-208.11"/>
<polygon fill="#333333" stroke="#333333" points="61.25,-208.1 59.5,-203.1 57.75,-208.1 61.25,-208.1"/>
</g>
<!-- place_done -->
<g id="node2" class="node">
<title>place_done</title>
<ellipse fill="lightgreen" stroke="#333333" cx="59.5" cy="-113" rx="36" ry="18"/>
<text text-anchor="start" x="49" y="-112.1" font-family="Arial" font-weight="bold" font-size="8.00">done</text>
</g>
<!-- transition_1 -->
<g id="node4" class="node">
<title>transition_1</title>
<polygon fill="none" stroke="#333333" points="95.5,-59 23.5,-59 23.5,-23 95.5,-23 95.5,-59"/>
<text text-anchor="start" x="48" y="-40.1" font-family="Arial" font-weight="bold" font-size="8.00">resize</text>
</g>
<!-- place_done&#45;&gt;transition_1 -->
<!-- done -->
<g id="edge3" class="edge">
<title>place_done&#45;&gt;transition_1</title>
<path fill="none" stroke="#333333" d="M53.62,-95.05C52.64,-85.82 52.49,-74.28 53.16,-64.32"/>
<polygon fill="#333333" stroke="#333333" points="54.91,-64.41 53.59,-59.28 51.42,-64.11 54.91,-64.41"/>
</g>
<!-- transition_0&#45;&gt;place_done -->
<g id="edge2" class="edge">
<title>transition_0&#45;&gt;place_done</title>
<path fill="none" stroke="#333333" d="M59.5,-166.7C59.5,-157.46 59.5,-145.98 59.5,-136.11"/>
<polygon fill="#333333" stroke="#333333" points="61.25,-136.1 59.5,-131.1 57.75,-136.1 61.25,-136.1"/>
</g>
<!-- transition_1&#45;&gt;place_done -->
<g id="edge4" class="edge">
<title>transition_1&#45;&gt;place_done</title>
<path fill="none" stroke="#333333" d="M65.41,-59.28C66.37,-68.56 66.51,-80.12 65.82,-90.04"/>
<polygon fill="#333333" stroke="#333333" points="64.07,-89.92 65.38,-95.05 67.56,-90.23 64.07,-89.92"/>
</g>
</g>
</svg>
