<svg xmlns="http://www.w3.org/2000/svg" xmlns:xlink="http://www.w3.org/1999/xlink" contentStyleType="text/css" data-diagram-type="CLASS" height="762px" preserveAspectRatio="none" style="width:1918px;height:762px;background:#FFFFFF;" version="1.1" viewBox="0 0 1918 762" width="1918px" zoomAndPan="magnify"><defs/><g><!--cluster Entity--><g class="cluster" data-entity="Entity" data-source-line="8" data-uid="ent0004" id="cluster_Entity"><path d="M8.5,6 L92.3311,6 A3.75,3.75 0 0 1 94.8311,8.5 L101.8311,28.2969 L1048.5,28.2969 A2.5,2.5 0 0 1 1051,30.7969 L1051,753.48 A2.5,2.5 0 0 1 1048.5,755.98 L8.5,755.98 A2.5,2.5 0 0 1 6,753.48 L6,8.5 A2.5,2.5 0 0 1 8.5,6" fill="none" style="stroke:#000000;stroke-width:1.5;"/><line style="stroke:#000000;stroke-width:1.5;" x1="6" x2="101.8311" y1="28.2969" y2="28.2969"/><text fill="#000000" font-family="sans-serif" font-size="14" font-weight="bold" lengthAdjust="spacing" textLength="82.8311" x="10" y="20.9951">App\Entity</text></g><!--cluster Entity--><g class="cluster" data-entity="Entity" data-source-line="79" data-uid="ent0013" id="cluster_Entity"><path d="M1077.5,120.07 L1318.5303,120.07 A3.75,3.75 0 0 1 1321.0303,122.57 L1328.0303,142.3669 L1328.5,142.3669 A2.5,2.5 0 0 1 1331,144.8669 L1331,251.76 A2.5,2.5 0 0 1 1328.5,254.26 L1077.5,254.26 A2.5,2.5 0 0 1 1075,251.76 L1075,122.57 A2.5,2.5 0 0 1 1077.5,120.07" fill="none" style="stroke:#000000;stroke-width:1.5;"/><line style="stroke:#000000;stroke-width:1.5;" x1="1075" x2="1328.0303" y1="142.3669" y2="142.3669"/><text fill="#000000" font-family="sans-serif" font-size="14" font-weight="bold" lengthAdjust="spacing" textLength="240.0303" x="1079" y="135.0651">Survos\KeyValueBundle\Entity</text></g><!--cluster Model--><g class="cluster" data-entity="Model" data-source-line="84" data-uid="ent0019" id="cluster_Model"><path d="M1357.5,22.29 L1710.6328,22.29 A3.75,3.75 0 0 1 1713.1328,24.79 L1720.1328,44.5869 L1908.5,44.5869 A2.5,2.5 0 0 1 1911,47.0869 L1911,349.54 A2.5,2.5 0 0 1 1908.5,352.04 L1357.5,352.04 A2.5,2.5 0 0 1 1355,349.54 L1355,24.79 A2.5,2.5 0 0 1 1357.5,22.29" fill="none" style="stroke:#000000;stroke-width:1.5;"/><line style="stroke:#000000;stroke-width:1.5;" x1="1355" x2="1720.1328" y1="44.5869" y2="44.5869"/><text fill="#000000" font-family="sans-serif" font-size="14" font-weight="bold" lengthAdjust="spacing" textLength="352.1328" x="1359" y="37.2851">Zenstruck\Messenger\Monitor\History\Model</text></g><!--class User--><g class="entity" data-entity="User" data-source-line="8" data-uid="ent0002" id="entity_User"><rect fill="#F1F1F1" height="197.2656" rx="2.5" ry="2.5" style="stroke:#181818;stroke-width:0.5;" width="212.293" x="21.85" y="98.03"/><text fill="#000000" font-family="sans-serif" font-size="14" lengthAdjust="spacing" textLength="31.9102" x="112.0414" y="116.0251">User</text><line style="stroke:#181818;stroke-width:0.5;" x1="22.85" x2="233.143" y1="124.3269" y2="124.3269"/><rect fill="none" height="6" style="stroke:#C82930;stroke-width:1;" width="6" x="29.85" y="134.9753"/><text fill="#000000" font-family="sans-serif" font-size="14" lengthAdjust="spacing" textLength="116.2451" x="41.85" y="141.322">roles : array = []</text><rect fill="none" height="6" style="stroke:#C82930;stroke-width:1;" width="6" x="29.85" y="151.2722"/><text fill="#000000" font-family="sans-serif" font-size="14" lengthAdjust="spacing" textLength="174.1045" x="41.85" y="157.6189">password : ?string = null</text><rect fill="none" height="6" style="stroke:#C82930;stroke-width:1;" width="6" x="29.85" y="167.5691"/><text fill="#000000" font-family="sans-serif" font-size="14" lengthAdjust="spacing" textLength="162.7979" x="41.85" y="173.9157">isVerified : bool = false</text><rect fill="none" height="6" style="stroke:#C82930;stroke-width:1;" width="6" x="29.85" y="183.8659"/><text fill="#000000" font-family="sans-serif" font-size="14" lengthAdjust="spacing" textLength="154.8271" x="41.85" y="190.2126">apiKey : ?string = null</text><rect fill="none" height="6" style="stroke:#C82930;stroke-width:1;" width="6" x="29.85" y="200.1628"/><text fill="#000000" font-family="sans-serif" font-size="14" lengthAdjust="spacing" textLength="146.002" x="41.85" y="206.5095">email : ?string = null</text><rect fill="none" height="6" style="stroke:#C82930;stroke-width:1;" width="6" x="29.85" y="216.4597"/><text fill="#000000" font-family="sans-serif" font-size="14" lengthAdjust="spacing" textLength="148.6816" x="41.85" y="222.8064">binCount : ?int = null</text><rect fill="none" height="6" style="stroke:#C82930;stroke-width:1;" width="6" x="29.85" y="232.7566"/><text fill="#000000" font-family="sans-serif" font-size="14" lengthAdjust="spacing" textLength="94.999" x="41.85" y="239.1032">code : ?string</text><rect fill="none" height="6" style="stroke:#C82930;stroke-width:1;" width="6" x="29.85" y="249.0534"/><text fill="#000000" font-family="sans-serif" font-size="14" lengthAdjust="spacing" textLength="173.6807" x="41.85" y="255.4001">approxImageCount : ?int</text><rect fill="none" height="6" style="stroke:#C82930;stroke-width:1;" width="6" x="29.85" y="265.3503"/><text fill="#000000" font-family="sans-serif" font-size="14" lengthAdjust="spacing" textLength="184.1396" x="41.85" y="271.697">mediaCallbackUrl : ?string</text><rect fill="none" height="6" style="stroke:#C82930;stroke-width:1;" width="6" x="29.85" y="281.6472"/><text fill="#000000" font-family="sans-serif" font-size="14" lengthAdjust="spacing" textLength="186.293" x="41.85" y="287.9939">thumbCallbackUrl : ?string</text></g><!--class File--><g class="entity" data-entity="File" data-source-line="20" data-uid="ent0005" id="entity_File"><rect fill="#F1F1F1" height="311.3438" rx="2.5" ry="2.5" style="stroke:#181818;stroke-width:0.5;" width="309.0283" x="269.49" y="41"/><text fill="#000000" font-family="sans-serif" font-size="14" lengthAdjust="spacing" textLength="24.4453" x="411.7815" y="58.9951">File</text><line style="stroke:#181818;stroke-width:0.5;" x1="270.49" x2="577.5183" y1="67.2969" y2="67.2969"/><rect fill="none" height="6" style="stroke:#C82930;stroke-width:1;" width="6" x="277.49" y="77.9453"/><text fill="#000000" font-family="sans-serif" font-size="14" lengthAdjust="spacing" textLength="58.9326" x="289.49" y="84.292">id = null</text><rect fill="none" height="6" style="stroke:#C82930;stroke-width:1;" width="6" x="277.49" y="94.2422"/><text fill="#000000" font-family="sans-serif" font-size="14" lengthAdjust="spacing" textLength="85.8594" x="289.49" y="100.5889">name = null</text><rect fill="none" height="6" style="stroke:#C82930;stroke-width:1;" width="6" x="277.49" y="110.5391"/><text fill="#000000" font-family="sans-serif" font-size="14" lengthAdjust="spacing" textLength="283.0283" x="289.49" y="116.8857">lastModified : ?DateTimeInterface = null</text><rect fill="none" height="6" style="stroke:#C82930;stroke-width:1;" width="6" x="277.49" y="126.8359"/><text fill="#000000" font-family="sans-serif" font-size="14" lengthAdjust="spacing" textLength="135.5156" x="289.49" y="133.1826">fileSize : ?int = null</text><rect fill="none" height="6" style="stroke:#C82930;stroke-width:1;" width="6" x="277.49" y="143.1328"/><text fill="#000000" font-family="sans-serif" font-size="14" lengthAdjust="spacing" textLength="169.2441" x="289.49" y="149.4795">listingCount : ?int = null</text><rect fill="none" height="6" style="stroke:#C82930;stroke-width:1;" width="6" x="277.49" y="159.4297"/><text fill="#000000" font-family="sans-serif" font-size="14" lengthAdjust="spacing" textLength="93.0645" x="289.49" y="165.7764">path : ?string</text><rect fill="none" height="6" style="stroke:#C82930;stroke-width:1;" width="6" x="277.49" y="175.7266"/><text fill="#000000" font-family="sans-serif" font-size="14" lengthAdjust="spacing" textLength="75.1338" x="289.49" y="182.0732">isDir : bool</text><rect fill="none" height="6" style="stroke:#C82930;stroke-width:1;" width="6" x="277.49" y="192.0234"/><text fill="#000000" font-family="sans-serif" font-size="14" lengthAdjust="spacing" textLength="96.3867" x="289.49" y="198.3701">isPublic : bool</text><rect fill="none" height="6" style="stroke:#C82930;stroke-width:1;" width="6" x="277.49" y="208.3203"/><text fill="#000000" font-family="sans-serif" font-size="14" lengthAdjust="spacing" textLength="136.2197" x="289.49" y="214.667">childCount : int = 0</text><rect fill="none" height="6" style="stroke:#C82930;stroke-width:1;" width="6" x="277.49" y="224.6172"/><text fill="#000000" font-family="sans-serif" font-size="14" lengthAdjust="spacing" textLength="79.4473" x="289.49" y="230.9639">level = null</text><rect fill="none" height="6" style="stroke:#C82930;stroke-width:1;" width="6" x="277.49" y="240.9141"/><text fill="#000000" font-family="sans-serif" font-size="14" lengthAdjust="spacing" textLength="69.0771" x="289.49" y="247.2607">left = null</text><rect fill="none" height="6" style="stroke:#C82930;stroke-width:1;" width="6" x="277.49" y="257.2109"/><text fill="#000000" font-family="sans-serif" font-size="14" lengthAdjust="spacing" textLength="79.0508" x="289.49" y="263.5576">right = null</text><rect fill="none" height="6" style="stroke:#C82930;stroke-width:1;" width="6" x="277.49" y="273.5078"/><text fill="#000000" font-family="sans-serif" font-size="14" lengthAdjust="spacing" textLength="165.1221" x="289.49" y="279.8545">marking : ?string = null</text><rect fill="none" height="6" style="stroke:#C82930;stroke-width:1;" width="6" x="277.49" y="289.8047"/><text fill="#000000" font-family="sans-serif" font-size="14" lengthAdjust="spacing" textLength="206.6641" x="289.49" y="296.1514">storage : ?App\Entity\Storage</text><polygon fill="none" points="280.49,304.1016,284.49,308.1016,280.49,312.1016,276.49,308.1016" style="stroke:#B38D22;stroke-width:1;"/><text fill="#000000" font-family="sans-serif" font-size="14" lengthAdjust="spacing" textLength="92.3535" x="289.49" y="312.4482">parent = null</text><rect fill="none" height="6" style="stroke:#C82930;stroke-width:1;" width="6" x="277.49" y="322.3984"/><text fill="#000000" font-family="sans-serif" font-size="14" lengthAdjust="spacing" textLength="102.6348" x="289.49" y="328.7451">children = null</text><rect fill="none" height="6" style="stroke:#C82930;stroke-width:1;" width="6" x="277.49" y="338.6953"/><text fill="#000000" font-family="sans-serif" font-size="14" lengthAdjust="spacing" textLength="74.5322" x="289.49" y="345.042">root = null</text></g><!--class Media--><g class="entity" data-entity="Media" data-source-line="39" data-uid="ent0006" id="entity_Media"><rect fill="#F1F1F1" height="327.6406" rx="2.5" ry="2.5" style="stroke:#181818;stroke-width:0.5;" width="375.3301" x="659.33" y="412.34"/><text fill="#000000" font-family="sans-serif" font-size="14" lengthAdjust="spacing" textLength="42.0479" x="825.9711" y="430.3351">Media</text><line style="stroke:#181818;stroke-width:0.5;" x1="660.33" x2="1033.6601" y1="438.6369" y2="438.6369"/><rect fill="none" height="6" style="stroke:#C82930;stroke-width:1;" width="6" x="667.33" y="449.2853"/><text fill="#000000" font-family="sans-serif" font-size="14" lengthAdjust="spacing" textLength="181.5078" x="679.33" y="455.632">mimeType : ?string = null</text><rect fill="none" height="6" style="stroke:#C82930;stroke-width:1;" width="6" x="667.33" y="465.5822"/><text fill="#000000" font-family="sans-serif" font-size="14" lengthAdjust="spacing" textLength="112.6016" x="679.33" y="471.9289">size : ?int = null</text><rect fill="none" height="6" style="stroke:#C82930;stroke-width:1;" width="6" x="667.33" y="481.8791"/><text fill="#000000" font-family="sans-serif" font-size="14" lengthAdjust="spacing" textLength="154.5605" x="679.33" y="488.2257">resized : ?array = null</text><rect fill="none" height="6" style="stroke:#C82930;stroke-width:1;" width="6" x="667.33" y="498.1759"/><text fill="#000000" font-family="sans-serif" font-size="14" lengthAdjust="spacing" textLength="279.7949" x="679.33" y="504.5226">createdAt : ?DateTimeImmutable = null</text><rect fill="none" height="6" style="stroke:#C82930;stroke-width:1;" width="6" x="667.33" y="514.4728"/><text fill="#000000" font-family="sans-serif" font-size="14" lengthAdjust="spacing" textLength="284.375" x="679.33" y="520.8195">updatedAt : ?DateTimeImmutable = null</text><rect fill="none" height="6" style="stroke:#C82930;stroke-width:1;" width="6" x="667.33" y="530.7697"/><text fill="#000000" font-family="sans-serif" font-size="14" lengthAdjust="spacing" textLength="134.7979" x="679.33" y="537.1164">blur : ?string = null</text><rect fill="none" height="6" style="stroke:#C82930;stroke-width:1;" width="6" x="667.33" y="547.0666"/><text fill="#000000" font-family="sans-serif" font-size="14" lengthAdjust="spacing" textLength="164.3154" x="679.33" y="553.4132">statusCode : ?int = null</text><rect fill="none" height="6" style="stroke:#C82930;stroke-width:1;" width="6" x="667.33" y="563.3634"/><text fill="#000000" font-family="sans-serif" font-size="14" lengthAdjust="spacing" textLength="184.0645" x="679.33" y="569.7101">originalHeight : ?int = null</text><rect fill="none" height="6" style="stroke:#C82930;stroke-width:1;" width="6" x="667.33" y="579.6603"/><text fill="#000000" font-family="sans-serif" font-size="14" lengthAdjust="spacing" textLength="178.7666" x="679.33" y="586.007">originalWidth : ?int = null</text><rect fill="none" height="6" style="stroke:#C82930;stroke-width:1;" width="6" x="667.33" y="595.9572"/><text fill="#000000" font-family="sans-serif" font-size="14" lengthAdjust="spacing" textLength="129.7803" x="679.33" y="602.3039">ext : ?string = null</text><rect fill="none" height="6" style="stroke:#C82930;stroke-width:1;" width="6" x="667.33" y="612.2541"/><text fill="#000000" font-family="sans-serif" font-size="14" lengthAdjust="spacing" textLength="129.876" x="679.33" y="618.6007">exif : ?array = null</text><rect fill="none" height="6" style="stroke:#C82930;stroke-width:1;" width="6" x="667.33" y="628.5509"/><text fill="#000000" font-family="sans-serif" font-size="14" lengthAdjust="spacing" textLength="157.1719" x="679.33" y="634.8976">context : ?array = null</text><rect fill="none" height="6" style="stroke:#C82930;stroke-width:1;" width="6" x="667.33" y="644.8478"/><text fill="#000000" font-family="sans-serif" font-size="14" lengthAdjust="spacing" textLength="165.8945" x="679.33" y="651.1945">root : string {readonly}</text><rect fill="none" height="6" style="stroke:#C82930;stroke-width:1;" width="6" x="667.33" y="661.1447"/><text fill="#000000" font-family="sans-serif" font-size="14" lengthAdjust="spacing" textLength="94.999" x="679.33" y="667.4914">code : ?string</text><rect fill="none" height="6" style="stroke:#C82930;stroke-width:1;" width="6" x="667.33" y="677.4416"/><text fill="#000000" font-family="sans-serif" font-size="14" lengthAdjust="spacing" textLength="93.0645" x="679.33" y="683.7882">path : ?string</text><rect fill="none" height="6" style="stroke:#C82930;stroke-width:1;" width="6" x="667.33" y="693.7384"/><text fill="#000000" font-family="sans-serif" font-size="14" lengthAdjust="spacing" textLength="133.458" x="679.33" y="700.0851">originalUrl : ?string</text><rect fill="none" height="6" style="stroke:#C82930;stroke-width:1;" width="6" x="667.33" y="710.0353"/><text fill="#000000" font-family="sans-serif" font-size="14" lengthAdjust="spacing" textLength="165.1221" x="679.33" y="716.382">marking : ?string = null</text><rect fill="none" height="6" style="stroke:#C82930;stroke-width:1;" width="6" x="667.33" y="726.3322"/><text fill="#000000" font-family="sans-serif" font-size="14" lengthAdjust="spacing" textLength="349.3301" x="679.33" y="732.6789">thumbs : Doctrine\Common\Collections\Collection</text></g><!--class ProcessedMessage--><g class="entity" data-entity="ProcessedMessage" data-source-line="59" data-uid="ent0007" id="entity_ProcessedMessage"><rect fill="#F1F1F1" height="50.5938" rx="2.5" ry="2.5" style="stroke:#181818;stroke-width:0.5;" width="140" x="650" y="171.37"/><text fill="#000000" font-family="sans-serif" font-size="14" lengthAdjust="spacing" textLength="132.5215" x="653.7393" y="189.3651">ProcessedMessage</text><line style="stroke:#181818;stroke-width:0.5;" x1="651" x2="789" y1="197.6669" y2="197.6669"/><rect fill="none" height="6" style="stroke:#C82930;stroke-width:1;" width="6" x="658" y="208.3153"/><text fill="#000000" font-family="sans-serif" font-size="14" lengthAdjust="spacing" textLength="98.2324" x="670" y="214.662">id : ?int = null</text></g><!--class Storage--><g class="entity" data-entity="Storage" data-source-line="62" data-uid="ent0008" id="entity_Storage"><rect fill="#F1F1F1" height="115.7813" rx="2.5" ry="2.5" style="stroke:#181818;stroke-width:0.5;" width="350.8916" x="248.55" y="518.27"/><text fill="#000000" font-family="sans-serif" font-size="14" lengthAdjust="spacing" textLength="54.7764" x="396.6076" y="536.2651">Storage</text><line style="stroke:#181818;stroke-width:0.5;" x1="249.55" x2="598.4416" y1="544.5669" y2="544.5669"/><rect fill="none" height="6" style="stroke:#C82930;stroke-width:1;" width="6" x="256.55" y="555.2153"/><text fill="#000000" font-family="sans-serif" font-size="14" lengthAdjust="spacing" textLength="98.2324" x="268.55" y="561.562">id : ?int = null</text><rect fill="none" height="6" style="stroke:#C82930;stroke-width:1;" width="6" x="256.55" y="571.5122"/><text fill="#000000" font-family="sans-serif" font-size="14" lengthAdjust="spacing" textLength="141.1553" x="268.55" y="577.8589">code : ?string = null</text><rect fill="none" height="6" style="stroke:#C82930;stroke-width:1;" width="6" x="256.55" y="587.8091"/><text fill="#000000" font-family="sans-serif" font-size="14" lengthAdjust="spacing" textLength="162.1826" x="268.55" y="594.1557">adapter : ?string = null</text><rect fill="none" height="6" style="stroke:#C82930;stroke-width:1;" width="6" x="256.55" y="604.1059"/><text fill="#000000" font-family="sans-serif" font-size="14" lengthAdjust="spacing" textLength="135.7686" x="268.55" y="610.4526">root : ?string = null</text><rect fill="none" height="6" style="stroke:#C82930;stroke-width:1;" width="6" x="256.55" y="620.4028"/><text fill="#000000" font-family="sans-serif" font-size="14" lengthAdjust="spacing" textLength="324.8916" x="268.55" y="626.7495">files : Doctrine\Common\Collections\Collection</text></g><!--class Thumb--><g class="entity" data-entity="Thumb" data-source-line="69" data-uid="ent0009" id="entity_Thumb"><rect fill="#F1F1F1" height="164.6719" rx="2.5" ry="2.5" style="stroke:#181818;stroke-width:0.5;" width="210.3584" x="824.82" y="114.33"/><text fill="#000000" font-family="sans-serif" font-size="14" lengthAdjust="spacing" textLength="48.8223" x="905.5881" y="132.3251">Thumb</text><line style="stroke:#181818;stroke-width:0.5;" x1="825.82" x2="1034.1784" y1="140.6269" y2="140.6269"/><rect fill="none" height="6" style="stroke:#C82930;stroke-width:1;" width="6" x="832.82" y="151.2753"/><text fill="#000000" font-family="sans-serif" font-size="14" lengthAdjust="spacing" textLength="98.2324" x="844.82" y="157.622">id : ?int = null</text><rect fill="none" height="6" style="stroke:#C82930;stroke-width:1;" width="6" x="832.82" y="167.5722"/><text fill="#000000" font-family="sans-serif" font-size="14" lengthAdjust="spacing" textLength="112.6016" x="844.82" y="173.9189">size : ?int = null</text><rect fill="none" height="6" style="stroke:#C82930;stroke-width:1;" width="6" x="832.82" y="183.8691"/><text fill="#000000" font-family="sans-serif" font-size="14" lengthAdjust="spacing" textLength="96.9063" x="844.82" y="190.2157">w : ?int = null</text><rect fill="none" height="6" style="stroke:#C82930;stroke-width:1;" width="6" x="832.82" y="200.1659"/><text fill="#000000" font-family="sans-serif" font-size="14" lengthAdjust="spacing" textLength="94.3291" x="844.82" y="206.5126">h : ?int = null</text><rect fill="none" height="6" style="stroke:#C82930;stroke-width:1;" width="6" x="832.82" y="216.4628"/><text fill="#000000" font-family="sans-serif" font-size="14" lengthAdjust="spacing" textLength="125.9111" x="844.82" y="222.8095">url : ?string = null</text><rect fill="none" height="6" style="stroke:#C82930;stroke-width:1;" width="6" x="832.82" y="232.7597"/><text fill="#000000" font-family="sans-serif" font-size="14" lengthAdjust="spacing" textLength="117.6328" x="844.82" y="239.1064">liipCode : ?string</text><rect fill="none" height="6" style="stroke:#C82930;stroke-width:1;" width="6" x="832.82" y="249.0566"/><text fill="#000000" font-family="sans-serif" font-size="14" lengthAdjust="spacing" textLength="165.1221" x="844.82" y="255.4032">marking : ?string = null</text><rect fill="none" height="6" style="stroke:#C82930;stroke-width:1;" width="6" x="832.82" y="265.3534"/><text fill="#000000" font-family="sans-serif" font-size="14" lengthAdjust="spacing" textLength="184.3584" x="844.82" y="271.7001">media : ?App\Entity\Media</text></g><!--class KeyValue--><g class="entity" data-entity="KeyValue" data-source-line="79" data-uid="ent0010" id="entity_KeyValue"><rect fill="#F1F1F1" height="83.1875" rx="2.5" ry="2.5" style="stroke:#181818;stroke-width:0.5;" width="140" x="1133" y="155.07"/><text fill="#000000" font-family="sans-serif" font-size="14" lengthAdjust="spacing" textLength="65.6113" x="1170.1943" y="173.0651">KeyValue</text><line style="stroke:#181818;stroke-width:0.5;" x1="1134" x2="1272" y1="181.3669" y2="181.3669"/><polygon fill="none" points="1144,190.0153,1148,194.0153,1144,198.0153,1140,194.0153" style="stroke:#B38D22;stroke-width:1;"/><text fill="#000000" font-family="sans-serif" font-size="14" lengthAdjust="spacing" textLength="44.6455" x="1153" y="198.362">id : int</text><polygon fill="none" points="1144,206.3122,1148,210.3122,1144,214.3122,1140,210.3122" style="stroke:#B38D22;stroke-width:1;"/><text fill="#000000" font-family="sans-serif" font-size="14" lengthAdjust="spacing" textLength="84.3965" x="1153" y="214.6589">value = null</text><polygon fill="none" points="1144,222.6091,1148,226.6091,1144,230.6091,1140,226.6091" style="stroke:#B38D22;stroke-width:1;"/><text fill="#000000" font-family="sans-serif" font-size="14" lengthAdjust="spacing" textLength="85.0801" x="1153" y="230.9557">type : string</text></g><!--class ProcessedMessage--><g class="entity" data-entity="ProcessedMessage" data-source-line="84" data-uid="ent0014" id="entity_ProcessedMessage"><rect fill="#F1F1F1" height="278.75" rx="2.5" ry="2.5" style="stroke:#181818;stroke-width:0.5;" width="524.8799" x="1370.56" y="57.29"/><text fill="#000000" font-family="sans-serif" font-size="14" font-style="italic" lengthAdjust="spacing" textLength="132.5215" x="1566.7392" y="75.2851">ProcessedMessage</text><line style="stroke:#181818;stroke-width:0.5;" x1="1371.56" x2="1894.4399" y1="83.5869" y2="83.5869"/><rect fill="none" height="6" style="stroke:#C82930;stroke-width:1;" width="6" x="1378.56" y="94.2353"/><text fill="#000000" font-family="sans-serif" font-size="14" lengthAdjust="spacing" textLength="68.3867" x="1390.56" y="100.582">runId : int</text><rect fill="none" height="6" style="stroke:#C82930;stroke-width:1;" width="6" x="1378.56" y="110.5322"/><text fill="#000000" font-family="sans-serif" font-size="14" lengthAdjust="spacing" textLength="117.5918" x="1390.56" y="116.8789">attempt : int = 1</text><rect fill="none" height="6" style="stroke:#C82930;stroke-width:1;" width="6" x="1378.56" y="126.8291"/><text fill="#000000" font-family="sans-serif" font-size="14" lengthAdjust="spacing" textLength="85.0801" x="1390.56" y="133.1757">type : string</text><rect fill="none" height="6" style="stroke:#C82930;stroke-width:1;" width="6" x="1378.56" y="143.1259"/><text fill="#000000" font-family="sans-serif" font-size="14" lengthAdjust="spacing" textLength="139.0771" x="1390.56" y="149.4726">description : ?string</text><rect fill="none" height="6" style="stroke:#C82930;stroke-width:1;" width="6" x="1378.56" y="159.4228"/><text fill="#000000" font-family="sans-serif" font-size="14" lengthAdjust="spacing" textLength="249.6689" x="1390.56" y="165.7695">dispatchedAt : DateTimeImmutable</text><rect fill="none" height="6" style="stroke:#C82930;stroke-width:1;" width="6" x="1378.56" y="175.7197"/><text fill="#000000" font-family="sans-serif" font-size="14" lengthAdjust="spacing" textLength="232.9277" x="1390.56" y="182.0664">receivedAt : DateTimeImmutable</text><rect fill="none" height="6" style="stroke:#C82930;stroke-width:1;" width="6" x="1378.56" y="192.0166"/><text fill="#000000" font-family="sans-serif" font-size="14" lengthAdjust="spacing" textLength="227.8213" x="1390.56" y="198.3632">finishedAt : DateTimeImmutable</text><rect fill="none" height="6" style="stroke:#C82930;stroke-width:1;" width="6" x="1378.56" y="208.3134"/><text fill="#000000" font-family="sans-serif" font-size="14" lengthAdjust="spacing" textLength="95.9697" x="1390.56" y="214.6601">waitTime : int</text><rect fill="none" height="6" style="stroke:#C82930;stroke-width:1;" width="6" x="1378.56" y="224.6103"/><text fill="#000000" font-family="sans-serif" font-size="14" lengthAdjust="spacing" textLength="114.2764" x="1390.56" y="230.957">handleTime : int</text><rect fill="none" height="6" style="stroke:#C82930;stroke-width:1;" width="6" x="1378.56" y="240.9072"/><text fill="#000000" font-family="sans-serif" font-size="14" lengthAdjust="spacing" textLength="133.9844" x="1390.56" y="247.2539">memoryUsage : int</text><rect fill="none" height="6" style="stroke:#C82930;stroke-width:1;" width="6" x="1378.56" y="257.2041"/><text fill="#000000" font-family="sans-serif" font-size="14" lengthAdjust="spacing" textLength="118.4941" x="1390.56" y="263.5507">transport : string</text><rect fill="none" height="6" style="stroke:#C82930;stroke-width:1;" width="6" x="1378.56" y="273.5009"/><text fill="#000000" font-family="sans-serif" font-size="14" lengthAdjust="spacing" textLength="91.4854" x="1390.56" y="279.8476">tags : ?string</text><rect fill="none" height="6" style="stroke:#C82930;stroke-width:1;" width="6" x="1378.56" y="289.7978"/><text fill="#000000" font-family="sans-serif" font-size="14" lengthAdjust="spacing" textLength="186.2588" x="1390.56" y="296.1445">failureType : ?string = null</text><rect fill="none" height="6" style="stroke:#C82930;stroke-width:1;" width="6" x="1378.56" y="306.0947"/><text fill="#000000" font-family="sans-serif" font-size="14" lengthAdjust="spacing" textLength="213.2813" x="1390.56" y="312.4414">failureMessage : ?string = null</text><rect fill="none" height="6" style="stroke:#C82930;stroke-width:1;" width="6" x="1378.56" y="322.3916"/><text fill="#000000" font-family="sans-serif" font-size="14" lengthAdjust="spacing" textLength="498.8799" x="1390.56" y="328.7382">results : Zenstruck\Messenger\Monitor\History\Model\Results|array|null</text></g><!--link File to Storage--><g class="link" data-entity-1="File" data-entity-2="Storage" data-source-line="101" data-uid="lnk20" id="link_File_Storage"><path codeLine="101" d="M346.74,352.66 C346.74,411.13 346.74,474.02 346.74,518.14" fill="none" id="File-Storage" style="stroke:#181818;stroke-width:1;"/><text fill="#000000" font-family="sans-serif" font-size="13" lengthAdjust="spacing" textLength="6.5" x="336.8643" y="372.6491">*</text><text fill="#000000" font-family="sans-serif" font-size="13" lengthAdjust="spacing" textLength="8.271" x="328.8535" y="507.2297">1</text></g><!--link File to File--><g class="link" data-entity-1="File" data-entity-2="File" data-source-line="102" data-uid="lnk21" id="link_File_File"><path codeLine="102" d="M475.5,40.92 C475.5,34.05 475.5,29.98 475.5,29.98 C475.5,29.98 585.49,29.98 585.49,29.98 C585.49,29.98 585.49,372.98 585.49,372.98 C585.49,372.98 501.26,372.98 501.26,372.98 C501.26,372.98 501.26,365.14 501.26,352.75" fill="none" id="File-File" style="stroke:#181818;stroke-width:1;"/><text fill="#000000" font-family="sans-serif" font-size="13" lengthAdjust="spacing" textLength="6.5" x="471.8611" y="30.0826">*</text><text fill="#000000" font-family="sans-serif" font-size="13" lengthAdjust="spacing" textLength="8.271" x="496.5855" y="372.232">1</text></g><!--link File to File--><g class="link" data-entity-1="File" data-entity-2="File" data-source-line="103" data-uid="lnk22" id="link_File_File"><path codeLine="103" d="M372.5,40.61 C372.5,26.84 372.5,17.98 372.5,17.98 C372.5,17.98 592.47,17.98 592.47,17.98 C592.47,17.98 592.47,392.98 592.47,392.98 C592.47,392.98 424,392.98 424,392.98 C424,392.98 424,382.35 424,358.78" fill="none" id="File-to-File" style="stroke:#181818;stroke-width:1;"/><polygon fill="#181818" points="424,352.78,420,361.78,424,357.78,428,361.78,424,352.78" style="stroke:#181818;stroke-width:1;"/><text fill="#000000" font-family="sans-serif" font-size="13" lengthAdjust="spacing" textLength="6.5" x="363.8721" y="29.7576">*</text><text fill="#000000" font-family="sans-serif" font-size="13" lengthAdjust="spacing" textLength="8.271" x="415.8247" y="372.2634">1</text></g><!--link Thumb to Media--><g class="link" data-entity-1="Thumb" data-entity-2="Media" data-source-line="104" data-uid="lnk23" id="link_Thumb_Media"><path codeLine="104" d="M929.74,279.48 C929.74,318.41 929.74,366.25 929.74,412.07" fill="none" id="Thumb-Media" style="stroke:#181818;stroke-width:1;"/><text fill="#000000" font-family="sans-serif" font-size="13" lengthAdjust="spacing" textLength="6.5" x="923.4908" y="299.0315">*</text><text fill="#000000" font-family="sans-serif" font-size="13" lengthAdjust="spacing" textLength="8.271" x="925.3143" y="401.3647">1</text></g><!--SRC=[fLRRQjj047ttLspjju8XWJu5sf0wBGd549fBeLK9Asba3TwBs8iJDyc_TrONHxBNRg0liJHdPdVcd9bHB3XceUA6EsrOmaRlAiCNaZDluL8vC19ov0wkUBRa2x2iuCB2o2vHXI3912fmwmgODgxKFM2EQYQujJymToKx_d0qAZ47bg7913JF82ktPX9a2iQEthaI9B1xfHNSZx8GoywgAlcY7BfrScl1iAVHb1ajA8yJnetXQ_QH_VfDnegy7xJ9oNvgdK6r84Hv8GX3UmS62uI0fbeBWfeofenN-0tMiIYG74KCIAamxPKB6DBF1iWqrRG9g0-lZ7wyb4HSFuAGcjKP5o8bNc-D68Ivqiiq3hxiyl8L1TIyOFwQYkB4vEQDGjnSvnq5f-Saw0tAHk22PptNWawxnZ-mKvn0woY3UEKL9udx9Q0zHzEoNRzU-LHWzch9IXHvTrXprb6u1LOWUfT2qRl5uABilKfkba6OY4IMcfb83r2FgUl6EffGlWO6oeLioDIxI-iD7Y5z7lIhMPV4uqte_rWQCI8D17EjGzV1NHO6I9Zyp0qqaj8xdegUHhxAt-IN2c_Yx73dxQpjra5ocZX6nSK5r5plWvkPtaRXqKK7wH6BMBMQkg-9s49gxazOUyuJiP9h9TOliH7RwRmknUsXEj0jzRo5ZNAkim11CjDIQaK_Ga3cK2lRUuxrmvNH6LWB-Pp-Xivh1t98KIImxScu_tQzhtQUyufcDmQrxEtOmsJ_Nv4tWQTzcKPx_M77ijirtaIth42iPjjg7n2ntgXR0rzFwQQIQszMsYQqxk-uyF3Pgrn0vzfPgRn9KrvOr1EsgetjBHFccadVR6EUqYFF76kk-0cAtdssJ48VW5g0IUPQ8OcSN63OIfGK5INY3MEykkok9esT2n_8pNuy3gqwk7_ASh2PmIeeDY0gHqkJaPNjbjXP4lKUoW1N1nmAL6WFdV30qGNR9kEI1qe79lguKz6tjjd6ZOqOKxQY_nVwbJY-i8CI2lhyUhDtjxPmHrzi4C1wuSAXRvVbUnFpN6-avtPejp-su_TZDfsoyV4uCiblz0xG7jTF__9jvZ1-RjtoVm40]--></g></svg>